<?xml version="1.0" standalone="no"?>
<!DOCTYPE svg PUBLIC "-//W3C//DTD SVG 20010904//EN"
 "http://www.w3.org/TR/2001/REC-SVG-20010904/DTD/svg10.dtd">
<svg version="1.0" xmlns="http://www.w3.org/2000/svg"
 width="2048.000000pt" height="2048.000000pt" viewBox="0 0 2048.000000 2048.000000"
 preserveAspectRatio="xMidYMid meet">
<metadata>
Created by potrace 1.14, written by Peter Selinger 2001-2017
</metadata>
<g transform="translate(0.000000,2048.000000) scale(0.100000,-0.100000)"
fill="#000000" stroke="none">
<path d="M11995 20129 c5 -14 -2 -18 -40 -21 -34 -2 -49 1 -56 12 -8 12 -9 11
-5 -5 5 -16 1 -20 -18 -20 -13 0 -22 3 -20 6 2 4 -10 9 -27 11 -26 4 -30 2
-26 -14 6 -23 -2 -23 -20 0 -8 9 -12 11 -8 5 3 -7 3 -13 -2 -14 -4 0 -16 -2
-25 -4 -10 -2 -15 2 -12 9 5 14 -23 15 -44 2 -16 -9 -16 6 1 24 6 8 3 7 -9 -3
-25 -21 -35 -22 -28 -2 4 10 0 15 -11 15 -9 0 -13 -4 -10 -10 3 -5 1 -10 -6
-10 -8 0 -7 -5 2 -17 12 -16 12 -17 -2 -6 -16 13 -62 7 -54 -7 8 -13 -21 -19
-36 -8 -11 7 -9 8 6 3 16 -5 18 -4 8 6 -10 10 -16 10 -25 1 -16 -16 -31 -15
-22 1 5 8 2 8 -9 -2 -14 -11 -20 -11 -32 -1 -8 7 -15 8 -15 2 0 -5 -11 -9 -25
-9 -14 0 -22 4 -18 10 3 5 0 7 -8 5 -8 -3 -13 -14 -11 -24 3 -19 3 -19 -11 0
-11 16 -15 16 -19 4 -4 -10 -19 -14 -50 -13 -25 1 -53 -5 -68 -14 -14 -9 -21
-11 -17 -4 14 22 -92 8 -109 -14 -13 -16 -13 -16 -8 0 5 14 2 16 -17 13 -13
-3 -26 -5 -29 -5 -3 -1 2 -6 10 -11 10 -7 11 -10 2 -10 -7 0 -15 7 -18 15 -8
19 -44 2 -44 -20 0 -8 -5 -15 -11 -15 -5 0 -8 4 -5 8 3 5 -1 9 -9 9 -8 0 -12
-4 -10 -8 3 -4 -2 -10 -11 -13 -10 -4 -13 -2 -8 7 6 9 4 9 -7 1 -8 -6 -33 -10
-56 -9 -43 2 -57 -8 -27 -19 8 -3 12 -2 9 4 -3 6 -1 10 5 10 7 0 10 -6 7 -12
-2 -7 -10 -12 -16 -11 -6 2 -11 -4 -11 -12 0 -19 -5 -19 -36 1 -19 13 -24 14
-22 3 2 -7 -1 -13 -7 -14 -5 0 -16 -4 -23 -8 -7 -5 -15 -2 -19 9 -5 14 -8 13
-19 -7 -7 -13 -13 -18 -14 -11 0 17 -13 15 -38 -8 -11 -11 -46 -31 -76 -45
-31 -14 -56 -30 -56 -35 0 -6 -5 -10 -11 -10 -5 0 -7 5 -3 12 5 7 3 8 -7 2 -8
-5 -22 -7 -33 -5 -11 1 -16 -2 -11 -9 4 -7 -5 -9 -29 -7 -23 3 -33 0 -29 -6 4
-7 0 -8 -11 -4 -14 6 -17 3 -12 -10 6 -15 4 -14 -16 2 -13 11 -20 16 -16 11 4
-5 3 -15 -4 -23 -9 -11 -7 -12 8 -6 16 6 17 5 4 -9 -11 -12 -19 -13 -33 -4
-13 8 -24 7 -48 -6 -16 -10 -28 -14 -25 -9 3 5 -1 11 -9 14 -10 4 -12 1 -8
-10 4 -10 2 -14 -4 -10 -6 4 -10 1 -9 -6 0 -6 -3 -13 -8 -14 -5 -1 -13 -7 -18
-15 -7 -10 -11 -10 -22 5 -13 17 -14 16 -19 -3 -4 -14 -12 -19 -28 -17 -26 4
-49 -12 -42 -29 2 -6 -8 -16 -22 -22 -31 -14 -38 -15 -31 -4 3 5 -2 9 -10 9
-8 0 -13 -5 -11 -12 3 -6 -5 -12 -16 -13 -12 0 -23 -6 -25 -12 -2 -5 -8 -7
-14 -4 -5 3 -9 0 -7 -7 1 -8 1 -22 0 -32 -1 -17 -3 -17 -16 -3 -14 14 -18 13
-35 -4 -11 -11 -20 -23 -19 -26 2 -14 -26 -22 -38 -12 -7 6 -13 9 -14 7 0 -2
-2 -12 -4 -22 -5 -25 -15 -34 -15 -14 0 9 -5 19 -12 23 -7 5 -9 2 -5 -8 4 -12
1 -14 -15 -10 -17 4 -20 2 -15 -11 4 -11 2 -14 -8 -10 -8 3 -17 -2 -21 -10 -3
-9 -12 -13 -19 -11 -10 4 -12 -1 -8 -18 4 -18 3 -20 -6 -8 -8 11 -11 12 -11 2
0 -7 -4 -10 -10 -7 -5 3 -10 -3 -10 -14 0 -11 -4 -23 -10 -26 -5 -3 -10 -2
-10 3 0 5 -7 9 -15 9 -9 0 -14 -5 -12 -11 5 -16 -21 -38 -34 -30 -8 4 -9 3 -5
-4 4 -7 2 -12 -4 -12 -6 0 -8 -4 -5 -10 9 -15 -2 -12 -19 6 -14 14 -18 13 -41
-3 -13 -10 -25 -25 -25 -33 0 -11 -2 -12 -8 -2 -6 9 -17 3 -42 -20 -18 -18
-30 -27 -26 -20 4 6 2 12 -3 12 -6 0 -11 -10 -12 -22 0 -13 -3 -18 -5 -11 -3
7 -12 9 -20 6 -10 -4 -12 -9 -4 -18 7 -9 6 -16 -5 -25 -8 -7 -15 -18 -15 -26
0 -7 -5 -16 -12 -20 -6 -4 -8 -3 -5 3 4 6 -3 8 -18 6 -15 -3 -22 -10 -18 -19
3 -8 -1 -14 -8 -14 -8 0 -26 -14 -41 -32 -23 -28 -29 -31 -38 -18 -7 11 -10
11 -10 2 0 -8 -5 -10 -12 -6 -10 5 -10 4 -2 -5 9 -10 4 -21 -20 -46 -17 -18
-34 -28 -37 -23 -3 5 -9 0 -12 -11 -3 -12 -1 -21 4 -21 5 0 4 -9 -3 -20 -8
-12 -20 -19 -30 -17 -9 3 -15 0 -12 -7 2 -6 -16 -24 -41 -39 -25 -16 -45 -31
-45 -34 0 -2 5 -1 11 3 7 4 10 1 7 -7 -3 -8 -13 -13 -22 -13 -10 1 -16 -6 -16
-20 0 -13 -12 -28 -31 -38 -17 -10 -28 -22 -24 -28 4 -6 -1 -7 -11 -3 -11 4
-15 3 -11 -4 12 -18 -3 -42 -21 -36 -9 4 -14 3 -10 -2 4 -4 -4 -17 -18 -27
-19 -16 -22 -23 -14 -34 9 -10 6 -19 -13 -38 -23 -23 -41 -54 -39 -67 0 -3
-12 -4 -28 -3 -27 2 -29 0 -19 -18 8 -14 8 -18 0 -14 -5 4 -18 -5 -27 -19 -14
-21 -14 -28 -3 -43 11 -14 11 -15 -1 -4 -22 19 -30 14 -26 -18 2 -17 -1 -33
-6 -36 -5 -3 -7 -12 -4 -20 3 -9 -6 -22 -25 -33 -20 -13 -26 -21 -17 -24 9 -4
10 -6 1 -6 -7 -1 -13 -10 -13 -21 0 -11 -4 -20 -10 -20 -16 0 -50 42 -43 54 4
6 -1 5 -10 -3 -17 -13 -22 -7 -18 21 0 4 -8 5 -19 3 -11 -2 -27 3 -35 11 -8 9
-15 12 -15 8 0 -4 -6 1 -14 11 -12 16 -16 17 -30 6 -13 -11 -15 -10 -11 8 3
14 -1 18 -11 14 -8 -3 -21 0 -29 7 -8 7 -24 10 -34 7 -13 -3 -18 -1 -14 8 3
10 -2 12 -16 8 -14 -3 -23 0 -27 11 -7 19 -64 22 -64 4 0 -7 -5 -5 -11 5 -6 9
-15 14 -21 11 -7 -4 -8 -2 -4 5 5 8 12 9 20 2 8 -7 17 -6 26 1 12 8 12 9 -2 4
-10 -3 -20 -1 -23 5 -4 5 -10 7 -15 4 -5 -3 -25 -6 -44 -7 -19 -1 -33 -5 -30
-10 9 -13 -6 -9 -22 7 -18 17 -38 20 -28 4 4 -7 -2 -7 -17 1 -31 16 -39 25
-16 17 10 -4 16 -3 12 2 -7 13 -44 10 -42 -3 3 -15 -96 -14 -111 1 -10 9 -19
10 -32 3 -15 -8 -24 -6 -40 10 -11 11 -20 15 -20 9 0 -5 -4 -7 -10 -4 -5 3
-10 2 -10 -2 0 -5 -9 -14 -21 -21 -14 -9 -19 -9 -14 -2 8 14 -53 11 -72 -2 -6
-5 -14 -5 -18 2 -3 5 -1 10 6 10 7 0 9 3 6 6 -4 4 -13 1 -21 -5 -10 -9 -16 -9
-21 -1 -5 8 -11 7 -23 -2 -13 -11 -14 -11 -8 1 7 10 3 11 -15 6 -22 -7 -23 -7
-9 10 8 11 10 16 3 12 -6 -4 -14 -1 -17 5 -3 7 -4 4 -3 -7 1 -12 -5 -21 -17
-23 -14 -3 -17 0 -13 12 10 26 -16 14 -35 -16 -20 -32 -34 -38 -18 -8 9 16 8
19 -6 13 -13 -5 -15 -3 -9 7 6 9 4 11 -5 5 -19 -11 -70 -14 -70 -3 0 5 -6 6
-12 1 -7 -4 -34 -8 -60 -9 -26 -1 -53 -6 -60 -11 -7 -6 -21 -11 -30 -12 -10 0
-24 -2 -30 -2 -7 -1 -22 2 -32 7 -13 5 -17 4 -13 -3 4 -7 -8 -9 -33 -7 -22 2
-42 -2 -46 -8 -4 -6 -3 -8 3 -5 5 3 10 0 10 -7 0 -11 -5 -11 -26 0 -23 12 -26
12 -33 -5 -5 -14 -15 -18 -40 -17 -18 2 -37 -2 -41 -8 -5 -6 -5 -1 -2 12 5 16
2 22 -10 22 -11 0 -15 -5 -11 -15 3 -8 2 -14 -2 -14 -22 4 -32 -2 -26 -13 6
-10 4 -10 -7 -2 -13 9 -119 10 -164 0 -11 -3 -22 -5 -24 -5 -2 -1 1 -7 7 -14
15 -18 -54 -23 -76 -5 -9 8 -13 8 -9 2 4 -7 1 -16 -6 -21 -17 -14 -67 -25 -67
-16 0 5 -13 8 -29 8 -16 0 -27 -4 -24 -9 3 -4 -5 -5 -17 -1 -15 5 -20 4 -16
-4 5 -7 -4 -11 -24 -11 -17 0 -29 4 -26 8 3 5 -1 9 -9 9 -8 0 -12 -4 -9 -9 3
-4 -4 -8 -16 -8 -12 0 -18 -4 -15 -10 3 -5 -1 -10 -9 -10 -9 0 -16 -4 -16 -10
0 -5 -8 -10 -17 -10 -15 0 -16 -2 -3 -10 8 -5 11 -10 5 -11 -21 -3 -31 -5 -48
-13 -9 -5 -27 -6 -38 -3 -14 4 -23 -1 -29 -16 -8 -20 -15 -9 -11 16 1 4 -8 3
-19 -3 -11 -6 -24 -8 -29 -5 -5 3 -7 -5 -4 -16 5 -19 3 -21 -21 -17 -21 4 -27
1 -32 -18 -3 -13 -10 -24 -16 -24 -5 0 -6 5 -2 12 5 7 3 8 -5 3 -7 -4 -24 -1
-37 6 -21 11 -27 10 -41 -4 -15 -15 -17 -15 -30 1 -12 16 -13 16 -7 0 4 -11 1
-18 -6 -18 -7 0 -9 -9 -6 -22 l6 -23 -11 23 c-7 12 -15 22 -19 22 -9 0 -45
-43 -53 -63 -4 -11 -17 -17 -37 -17 -21 0 -29 -4 -24 -11 4 -7 1 -10 -7 -7 -8
3 -22 -6 -32 -19 -15 -19 -22 -21 -33 -12 -11 9 -14 8 -14 -6 0 -10 -3 -16 -6
-12 -4 3 -4 14 0 23 5 13 9 14 21 4 12 -10 15 -10 15 3 0 10 -7 15 -20 12 -30
-6 -41 -15 -34 -27 4 -7 2 -8 -4 -4 -20 12 -34 -4 -20 -22 12 -15 11 -16 -4
-3 -12 9 -18 10 -18 2 0 -6 -5 -11 -11 -11 -5 0 -7 5 -3 12 4 7 3 8 -5 4 -6
-4 -9 -16 -6 -26 4 -14 1 -16 -19 -13 -17 4 -23 10 -19 22 4 14 3 14 -6 1 -9
-12 -11 -13 -11 -1 0 8 -3 11 -6 8 -4 -4 -2 -13 5 -21 7 -8 8 -16 4 -18 -4 -3
-3 -3 4 -2 7 2 15 0 17 -5 3 -4 0 -8 -7 -9 -7 -1 -23 -3 -37 -5 -14 -2 -25
-10 -25 -18 0 -8 -6 -14 -13 -14 -7 0 -16 -6 -21 -13 -4 -7 -21 -16 -39 -21
-25 -8 -30 -7 -25 5 4 10 0 12 -11 8 -9 -3 -13 -11 -9 -18 4 -6 -1 -5 -10 3
-18 14 -19 13 -21 -18 0 -11 -5 -23 -10 -28 -5 -5 -6 -3 -2 5 4 7 1 12 -8 12
-9 0 -16 -5 -16 -11 0 -5 -4 -8 -9 -4 -5 3 -12 1 -16 -5 -4 -6 -11 -7 -17 -4
-7 4 -8 2 -4 -5 6 -9 11 -9 22 0 10 8 14 8 14 0 0 -11 -13 -15 -36 -12 -6 1
-17 -6 -24 -14 -7 -8 -9 -15 -6 -15 4 0 0 -7 -8 -16 -9 -8 -22 -12 -28 -8 -7
4 -9 3 -5 -1 4 -5 -3 -15 -15 -23 -13 -7 -15 -11 -5 -8 29 9 19 -4 -12 -15
-22 -8 -28 -15 -24 -27 6 -15 5 -15 -10 -3 -15 12 -17 11 -17 -2 0 -18 -34
-40 -44 -29 -4 3 -3 -6 3 -21 10 -26 9 -27 -9 -17 -16 8 -18 8 -14 -4 6 -16
-11 -16 -36 -2 -8 5 -12 6 -8 1 4 -4 2 -15 -5 -23 -10 -13 -9 -14 2 -8 9 6 12
5 9 -4 -8 -24 -26 -22 -30 2 l-5 23 -11 -25 c-6 -14 -11 -19 -11 -12 -1 17
-31 -11 -31 -29 0 -6 -8 -18 -17 -25 -17 -13 -17 -14 2 -9 16 5 16 3 -3 -6
-12 -7 -25 -23 -29 -36 -4 -18 -11 -23 -25 -20 -15 4 -17 3 -8 -8 9 -11 7 -13
-14 -9 -30 5 -32 1 -10 -20 14 -15 14 -16 -1 -16 -13 0 -16 -6 -13 -22 4 -19
-1 -23 -24 -25 -16 -1 -34 -8 -41 -15 -15 -15 -29 -48 -20 -48 3 0 12 8 20 18
13 15 13 15 4 -4 -6 -12 -22 -25 -36 -28 -14 -4 -25 -11 -25 -16 0 -6 -5 -10
-11 -10 -5 0 -7 5 -4 10 10 16 -1 11 -16 -7 -8 -9 -9 -14 -4 -11 6 3 16 0 23
-8 11 -12 10 -14 -3 -14 -9 0 -23 -6 -31 -14 -7 -8 -19 -16 -25 -18 -6 -2 -11
-16 -11 -31 0 -15 -5 -27 -10 -27 -5 0 -6 -5 -2 -12 4 -7 3 -8 -5 -4 -9 6 -9
11 -1 21 8 9 8 15 0 20 -9 6 -14 -10 -13 -43 1 -9 -3 -10 -12 -2 -11 9 -12 7
-8 -10 3 -11 9 -23 14 -25 4 -3 5 -13 2 -21 -4 -11 -8 -12 -13 -4 -10 17 -39
1 -46 -26 -3 -13 -12 -24 -19 -24 -8 0 -17 -5 -21 -12 -4 -6 -3 -8 4 -4 6 3
13 2 17 -4 3 -6 -4 -10 -17 -10 -22 -1 -22 -1 -4 -15 11 -8 14 -15 7 -15 -7 0
-9 -5 -4 -12 13 -22 12 -38 -2 -38 -8 0 -17 -10 -20 -21 -6 -17 -9 -19 -16 -8
-7 12 -10 12 -21 0 -10 -10 -10 -12 0 -7 6 4 12 3 12 -2 0 -6 -8 -13 -17 -16
-12 -5 -13 -10 -5 -18 8 -8 7 -15 -6 -25 -11 -9 -12 -12 -2 -7 9 4 12 3 7 -2
-5 -5 -12 -9 -15 -10 -22 -3 -42 -18 -33 -23 7 -5 4 -14 -8 -28 -14 -14 -18
-30 -15 -48 4 -22 2 -26 -10 -22 -9 4 -15 3 -15 -1 1 -4 0 -9 -1 -12 -7 -19
-7 -39 1 -34 5 3 7 10 4 15 -4 5 -1 9 4 9 14 0 14 -13 -1 -28 -7 -7 -8 -12 -3
-12 4 0 0 -9 -10 -20 -10 -11 -21 -17 -26 -15 -4 3 -11 0 -15 -6 -4 -7 -3 -9
3 -6 6 4 13 -2 16 -13 3 -11 1 -23 -4 -26 -5 -3 -9 2 -9 10 0 9 -4 16 -10 16
-5 0 -10 -7 -10 -15 0 -8 -6 -15 -12 -15 -9 0 -10 -2 -2 -8 14 -9 9 -85 -6
-90 -5 -2 -10 -8 -10 -13 0 -6 4 -8 9 -5 5 4 7 -3 4 -14 -3 -11 -10 -20 -15
-20 -5 0 -6 -9 -3 -20 4 -12 2 -20 -5 -20 -11 0 -32 -43 -35 -75 -4 -35 -10
-49 -25 -65 -9 -8 -10 -11 -3 -6 16 11 13 -18 -5 -51 -7 -13 -8 -23 -3 -23 14
0 6 -33 -9 -38 -7 -3 -10 0 -6 7 4 6 2 11 -3 11 -6 0 -11 -6 -11 -14 0 -7 -6
-19 -13 -25 -8 -6 -13 -30 -13 -57 1 -25 -2 -48 -6 -50 -4 -3 -3 -16 2 -29 6
-15 6 -27 -1 -30 -5 -4 -6 -11 -3 -17 4 -6 3 -9 -2 -5 -5 3 -18 -1 -29 -10
-19 -13 -18 -14 9 -7 26 6 28 5 15 -8 -8 -9 -18 -13 -23 -10 -5 3 -6 -3 -2
-13 6 -18 6 -18 -15 1 -12 10 -20 14 -16 9 3 -6 2 -17 -3 -25 -7 -11 -3 -20
13 -33 15 -12 17 -15 5 -11 -19 6 -25 -10 -8 -21 5 -3 10 -12 10 -18 0 -7 -4
-6 -10 3 -10 16 -12 13 -14 -19 0 -11 -4 -22 -8 -26 -4 -4 -4 -13 -1 -21 3 -8
-2 -17 -11 -20 -9 -3 -16 -10 -16 -16 0 -5 3 -7 8 -5 9 6 8 -46 -2 -61 -4 -7
-4 -16 -1 -22 3 -5 1 -10 -5 -10 -7 0 -10 -7 -7 -15 4 -8 -5 -23 -21 -36 -15
-12 -19 -19 -9 -16 18 7 24 -8 7 -18 -6 -4 -8 -10 -5 -15 3 -5 1 -11 -5 -15
-6 -4 -7 -11 -4 -17 4 -7 2 -8 -5 -4 -9 6 -9 12 1 24 12 15 11 16 -4 4 -10 -8
-20 -23 -24 -34 -3 -11 -12 -17 -20 -14 -28 11 -13 -4 16 -16 30 -13 30 -13 9
-26 -11 -8 -18 -9 -15 -3 4 5 2 12 -4 16 -11 7 -12 -2 -14 -77 -1 -33 -4 -44
-12 -37 -8 6 -14 4 -18 -7 -4 -10 -2 -21 5 -24 8 -6 8 -9 0 -14 -6 -4 -9 -12
-5 -17 3 -5 0 -8 -8 -7 -7 2 -12 -3 -10 -9 1 -7 -2 -13 -7 -13 -6 0 -6 -12 -1
-29 4 -15 4 -34 0 -42 -5 -7 -6 -17 -4 -21 3 -4 0 -8 -6 -8 -6 0 -8 -5 -4 -12
5 -7 2 -9 -9 -5 -10 4 -14 2 -11 -7 7 -18 -40 -38 -54 -24 -8 8 -13 7 -18 -5
-3 -9 -10 -14 -15 -11 -5 3 -9 0 -9 -6 0 -7 -6 -8 -19 -1 -15 8 -22 6 -35 -12
-12 -15 -18 -18 -22 -9 -8 18 -31 15 -56 -10 -14 -14 -23 -18 -26 -10 -2 7
-12 12 -23 12 -10 0 -19 5 -19 11 0 6 -9 1 -19 -12 l-19 -24 4 30 c2 17 1 22
-2 13 -6 -21 -25 -23 -42 -6 -9 9 -12 9 -12 -1 0 -7 -6 -11 -14 -8 -8 3 -17 1
-20 -6 -2 -7 -5 -4 -5 6 -1 20 -12 22 -28 6 -9 -9 -10 -6 -6 11 5 20 4 21 -15
11 -25 -14 -43 -14 -22 -1 13 8 13 10 -2 10 -9 0 -19 -6 -21 -12 -4 -10 -6 -9
-6 1 -1 11 -4 11 -16 1 -12 -10 -15 -10 -15 2 0 8 -10 24 -23 36 -18 17 -26
19 -35 10 -9 -9 -12 -9 -12 1 0 9 -9 12 -24 9 -18 -4 -23 -1 -18 10 3 10 1 13
-6 8 -7 -4 -12 -3 -12 2 0 19 -32 23 -45 6 -9 -14 -14 -14 -20 -4 -6 9 -4 11
6 6 8 -4 5 0 -5 8 -11 9 -30 16 -44 16 -15 0 -21 4 -16 12 5 8 0 9 -17 5 -23
-6 -23 -5 -5 8 19 15 19 15 -4 15 -13 0 -20 3 -17 7 4 3 -2 12 -13 20 -11 8
-20 18 -20 23 0 20 -43 58 -61 55 -11 -2 -17 0 -14 6 4 5 1 9 -5 9 -6 0 -9 4
-5 9 3 5 -5 11 -17 13 -15 2 -30 17 -44 46 -12 24 -30 50 -40 58 -11 9 -13 12
-5 8 10 -5 12 -3 7 5 -6 9 -11 9 -22 0 -16 -13 -30 -4 -36 21 -2 8 -10 21 -18
28 -13 12 -13 13 0 6 13 -7 13 -5 1 9 -7 9 -17 14 -22 11 -8 -5 -13 10 -10 29
1 5 -3 6 -8 3 -5 -4 -12 -2 -16 4 -3 5 0 10 7 10 7 1 0 8 -17 17 -16 8 -38 22
-47 31 -12 10 -18 11 -18 3 0 -7 -4 -10 -10 -6 -5 3 -6 13 -3 23 5 14 3 14 -9
-2 -8 -10 -20 -16 -26 -12 -6 3 -14 1 -18 -5 -4 -8 -3 -9 4 -5 7 4 12 2 12 -3
0 -6 -4 -11 -9 -11 -6 0 -8 -10 -6 -21 2 -12 0 -30 -6 -40 -8 -15 -6 -21 6
-25 9 -4 14 -12 11 -19 -5 -13 29 -47 38 -38 3 4 6 -1 6 -10 0 -9 4 -17 9 -17
5 0 12 -7 15 -16 3 -8 2 -12 -4 -9 -18 11 -11 -4 12 -26 13 -12 16 -19 8 -15
-8 4 -7 1 3 -7 14 -11 15 -16 5 -21 -7 -3 -2 -4 11 -2 18 4 21 2 13 -6 -9 -9
-7 -17 6 -32 9 -11 12 -16 5 -13 -7 5 -9 0 -6 -14 3 -12 11 -18 19 -15 8 3 13
0 11 -7 -1 -7 6 -11 15 -11 11 1 14 -4 11 -14 -4 -9 -2 -13 4 -9 6 4 19 -3 29
-15 11 -12 13 -18 7 -14 -7 4 -13 2 -13 -3 0 -11 13 -15 37 -12 6 1 14 -3 18
-9 3 -6 0 -7 -10 -4 -11 5 -14 2 -9 -10 3 -9 10 -13 15 -10 5 3 9 -2 9 -11 0
-11 5 -15 14 -12 10 4 12 0 9 -14 -4 -13 2 -21 21 -29 15 -5 25 -14 21 -19 -3
-5 0 -13 6 -17 7 -4 9 -3 6 3 -4 6 0 14 9 17 12 4 15 2 10 -9 -3 -8 -2 -14 2
-14 18 3 26 -2 14 -10 -11 -7 -11 -9 1 -14 16 -6 17 9 4 31 -5 7 -3 12 3 12 6
0 14 -8 17 -17 11 -29 45 -63 57 -56 6 4 4 -2 -4 -13 -8 -10 -10 -16 -6 -12 5
4 18 -2 29 -15 15 -16 18 -17 14 -5 -3 10 -1 20 5 24 6 4 8 3 5 -3 -4 -6 3
-19 16 -29 21 -19 21 -19 7 1 -14 18 -13 19 1 8 9 -7 19 -10 23 -6 4 4 4 0 0
-10 -4 -12 -1 -17 11 -17 10 0 13 5 9 12 -4 7 -3 8 5 4 6 -4 9 -11 6 -16 -6
-10 23 -22 36 -14 5 3 9 -2 9 -12 0 -14 3 -14 15 -4 13 11 14 10 9 -6 -4 -10
-4 -16 1 -12 4 4 15 2 23 -5 13 -10 15 -9 8 3 -4 9 -1 8 7 -2 14 -18 33 -25
23 -10 -8 13 48 8 63 -6 11 -10 16 -10 29 0 14 12 14 10 2 -12 -11 -21 -11
-23 1 -14 8 6 30 9 49 7 19 -2 45 -5 58 -5 12 -1 22 -9 22 -17 0 -14 2 -14 10
-1 5 8 12 11 16 7 4 -4 14 -1 22 6 12 10 16 9 20 -1 3 -10 7 -10 20 0 9 7 13
8 9 2 -3 -6 0 -11 8 -11 8 0 13 5 12 10 -3 14 45 16 62 3 11 -8 13 -8 7 2 -4
7 -2 12 4 12 6 0 8 5 4 13 -5 7 0 6 11 -3 11 -9 16 -10 11 -2 -9 16 2 16 18
-1 10 -10 10 -15 1 -24 -7 -7 -16 -10 -19 -7 -3 2 -2 -1 3 -7 5 -6 7 -19 4
-28 -4 -14 -3 -14 7 -1 10 13 11 12 6 -3 -3 -10 -6 -21 -6 -23 0 -2 -7 -4 -17
-4 -9 0 -14 -3 -11 -6 4 -3 -7 -18 -23 -33 -16 -16 -29 -33 -29 -40 0 -6 -3
-10 -7 -9 -11 4 -47 -23 -58 -42 -8 -13 -7 -13 11 0 18 14 18 14 1 -6 -9 -11
-17 -24 -17 -28 0 -11 -38 -58 -43 -54 -2 2 -12 -4 -22 -12 -11 -9 -16 -10
-11 -2 4 6 4 12 -1 12 -13 0 -32 -50 -26 -68 4 -15 3 -15 -6 -2 -10 13 -13 13
-24 -1 -6 -8 -20 -18 -31 -22 -11 -5 -16 -13 -12 -23 3 -8 2 -13 -3 -10 -10 7
-33 -18 -26 -27 3 -4 2 -5 -1 -3 -11 8 -32 -19 -26 -33 4 -10 1 -13 -10 -9 -9
4 -21 1 -27 -5 -7 -7 -16 -12 -21 -12 -6 0 -9 -2 -8 -5 4 -9 -45 -59 -53 -55
-4 3 -5 -5 -1 -17 3 -14 2 -19 -6 -14 -7 4 -12 1 -12 -6 0 -9 -3 -9 -10 2 -8
13 -10 13 -10 -2 0 -9 -14 -25 -30 -35 -17 -9 -30 -23 -30 -30 0 -13 -8 -16
-45 -15 -17 1 -17 0 -2 -4 20 -6 21 -13 6 -34 -9 -12 -10 -11 -5 5 6 20 6 20
-9 1 -8 -11 -15 -14 -15 -7 0 7 -5 9 -10 6 -8 -5 -7 -12 2 -23 7 -9 8 -13 2
-9 -12 7 -46 -28 -36 -38 4 -4 2 -5 -4 -3 -11 3 -64 -50 -64 -63 0 -4 -8 -6
-18 -5 -10 0 -17 -6 -16 -15 1 -10 -6 -16 -19 -15 -14 1 -26 -9 -37 -29 -8
-16 -18 -31 -22 -33 -5 -2 -8 -10 -8 -18 0 -7 -11 -16 -25 -20 -14 -3 -25 -10
-25 -15 0 -5 -6 -9 -14 -9 -8 0 -18 -5 -22 -12 -5 -7 -3 -8 7 -3 12 8 12 6 0
-9 -10 -12 -16 -13 -21 -6 -7 11 -25 -35 -21 -53 1 -5 -3 -6 -8 -3 -5 4 -12 2
-16 -4 -3 -5 -15 -10 -26 -10 -11 0 -18 -4 -15 -9 4 -5 -2 -7 -13 -4 -15 4
-18 -1 -16 -30 1 -25 -2 -34 -12 -30 -17 7 -45 -16 -39 -32 2 -6 -2 -12 -10
-12 -7 0 -10 5 -7 11 3 6 -6 -2 -20 -17 -16 -16 -32 -25 -39 -21 -8 5 -9 2 -5
-10 6 -14 3 -16 -13 -11 -12 4 -20 2 -20 -5 0 -6 4 -9 9 -5 5 3 12 1 16 -5 3
-5 -3 -10 -14 -10 -12 0 -21 -5 -21 -11 0 -5 -4 -8 -10 -4 -5 3 -15 -13 -21
-35 -8 -28 -15 -37 -21 -28 -6 10 -8 10 -8 -1 0 -8 -7 -11 -20 -8 -16 4 -18 2
-10 -12 6 -13 5 -18 -5 -18 -8 0 -11 5 -8 10 3 6 1 7 -5 3 -17 -10 -15 -26 4
-26 8 0 13 -4 10 -8 -3 -5 -19 -7 -35 -6 -19 1 -31 -3 -31 -10 0 -23 -38 -59
-56 -52 -14 5 -15 4 -5 -8 10 -12 9 -13 -8 -9 -13 3 -21 1 -21 -6 0 -7 4 -10
9 -7 5 4 7 -3 4 -14 -3 -11 -13 -20 -22 -21 -10 0 -11 -2 -3 -6 15 -6 16 -33
1 -33 -6 0 -9 -9 -6 -20 3 -13 0 -20 -8 -20 -8 0 -21 -10 -29 -22 -9 -12 -16
-17 -16 -10 0 6 -9 12 -20 12 -11 0 -20 -5 -20 -11 0 -5 -4 -7 -10 -4 -6 4 -7
-1 -3 -11 5 -13 3 -15 -8 -9 -11 7 -12 6 -2 -6 10 -12 8 -17 -8 -27 -13 -9
-19 -9 -19 -1 0 8 -5 8 -15 -1 -8 -7 -15 -18 -15 -26 0 -7 -5 -16 -12 -20 -7
-5 -8 -3 -3 6 5 9 4 11 -4 6 -6 -4 -9 -12 -6 -17 4 -5 -1 -12 -11 -16 -16 -6
-15 -7 2 -20 13 -10 14 -13 3 -13 -8 0 -20 -14 -27 -30 -8 -17 -17 -28 -22
-25 -15 9 -32 -23 -25 -47 4 -13 4 -20 0 -16 -5 4 -14 0 -22 -10 -9 -11 -12
-11 -7 -2 6 12 4 13 -7 3 -7 -7 -17 -13 -22 -13 -4 0 -5 6 -1 13 6 9 5 9 -7 0
-12 -10 -18 -10 -29 0 -8 6 -6 2 4 -10 10 -13 22 -20 26 -18 5 3 6 -4 3 -15
-4 -15 -13 -20 -34 -18 -29 2 -38 12 -19 21 6 3 5 4 -2 3 -7 -2 -13 -9 -13
-17 0 -8 -4 -17 -10 -21 -6 -5 -4 -8 4 -8 11 0 10 -4 -4 -13 -11 -9 -15 -19
-10 -27 4 -7 3 -15 -4 -19 -6 -4 -12 -19 -13 -33 -2 -23 -5 -25 -27 -17 -19 8
-22 7 -13 -4 9 -10 7 -17 -6 -28 -9 -8 -21 -15 -25 -16 -5 -1 -11 -4 -14 -6
-7 -8 20 -3 35 6 18 12 -6 -43 -28 -63 -9 -8 -19 -24 -24 -35 -6 -16 -9 -17
-16 -5 -7 11 -10 12 -10 2 0 -7 -5 -10 -11 -6 -7 4 -7 -1 1 -16 9 -17 9 -21 0
-15 -13 8 -52 -23 -44 -36 3 -5 -2 -19 -11 -32 -8 -13 -12 -27 -8 -32 5 -4 0
-5 -11 -1 -14 5 -17 2 -12 -9 3 -8 1 -15 -4 -15 -6 0 -10 5 -10 12 0 6 -3 8
-6 5 -4 -4 -1 -14 7 -24 9 -10 9 -14 2 -10 -14 9 -47 -59 -39 -79 6 -17 -5
-26 -18 -14 -8 6 -12 3 -12 -10 0 -10 3 -17 6 -15 4 2 7 -2 7 -10 0 -8 -8 -12
-21 -9 -21 3 -21 3 -1 -13 15 -12 16 -14 3 -10 -9 3 -22 -1 -30 -11 -9 -11 -9
-14 -1 -8 9 5 11 2 7 -9 -5 -13 -9 -13 -23 -3 -10 8 -8 3 4 -11 11 -14 14 -21
8 -17 -8 4 -13 1 -13 -8 0 -9 -4 -16 -10 -16 -5 0 -10 -4 -10 -10 0 -5 7 -6
17 -3 11 4 14 3 9 -5 -4 -7 -13 -12 -20 -12 -8 0 -16 -9 -19 -19 -3 -12 0 -18
7 -17 6 2 8 1 4 -1 -4 -2 -4 -12 -1 -21 4 -13 3 -14 -5 -4 -14 21 -45 10 -47
-16 -1 -13 2 -25 6 -28 5 -2 5 -12 2 -21 -5 -12 -3 -14 7 -8 8 5 11 4 6 -3 -4
-6 -13 -9 -20 -6 -14 5 -16 -22 -2 -44 4 -8 1 -12 -10 -12 -10 0 -15 -3 -12
-6 4 -3 -1 -14 -10 -24 -36 -40 -40 -49 -37 -76 1 -16 -2 -32 -8 -36 -6 -3
-10 -22 -9 -42 1 -32 -8 -48 -30 -52 -5 -1 -10 -2 -13 -3 -3 0 2 -12 10 -25
15 -23 7 -44 -13 -33 -4 3 -8 -7 -9 -21 -4 -59 -8 -80 -15 -75 -5 2 -8 0 -8
-6 0 -5 6 -12 13 -14 7 -3 5 -6 -5 -6 -10 -1 -18 -5 -18 -10 0 -5 -3 -18 -6
-28 -5 -15 -4 -15 5 -3 8 11 9 8 7 -15 -2 -16 -8 -31 -14 -33 -8 -2 -7 -8 3
-19 8 -8 15 -19 15 -24 0 -13 -18 -11 -22 3 -3 7 -7 2 -10 -10 -4 -12 -3 -20
2 -17 12 8 20 -21 8 -33 -6 -6 -6 -12 2 -17 8 -5 6 -12 -6 -26 -9 -10 -14 -19
-9 -19 4 0 -3 -9 -16 -20 -19 -15 -20 -19 -8 -20 9 0 19 -9 22 -21 4 -14 1
-19 -7 -16 -6 3 -12 -3 -12 -14 0 -14 3 -15 13 -7 8 6 16 8 20 4 3 -3 1 -6 -6
-6 -7 0 -11 -7 -8 -14 4 -11 1 -13 -11 -10 -16 5 -16 4 -1 -8 14 -11 14 -15 2
-26 -12 -11 -12 -17 -1 -30 11 -13 11 -14 -1 -7 -11 6 -13 3 -7 -16 4 -13 8
-46 8 -74 1 -27 6 -53 12 -57 6 -4 5 -12 -4 -22 -11 -14 -10 -16 6 -9 15 5 17
4 8 -8 -14 -20 -19 -83 -5 -75 7 5 8 1 5 -9 -4 -8 0 -23 7 -32 8 -10 9 -14 2
-10 -8 5 -11 0 -10 -13 1 -11 6 -19 12 -16 7 2 12 -2 12 -10 0 -8 -4 -14 -9
-14 -4 0 -8 -5 -8 -12 0 -6 3 -8 7 -5 3 4 12 -3 18 -16 9 -18 9 -25 -3 -39
-13 -15 -13 -20 -1 -35 9 -11 10 -14 2 -9 -19 11 -16 -5 5 -21 9 -8 12 -12 6
-9 -7 3 -14 0 -17 -8 -4 -10 0 -12 14 -9 10 3 19 1 20 -3 2 -22 10 -60 16 -74
3 -8 5 -23 4 -32 -1 -10 3 -27 9 -39 8 -15 9 -19 1 -15 -6 4 -11 3 -11 -3 0
-5 5 -13 11 -16 6 -5 4 -12 -8 -22 -13 -11 -14 -13 -3 -10 10 3 16 -2 17 -15
2 -28 38 -83 52 -80 8 1 8 -3 -1 -17 -6 -10 -16 -18 -22 -17 -6 2 -8 1 -3 -1
4 -3 5 -8 2 -12 -2 -5 3 -17 11 -27 9 -10 12 -13 8 -5 -4 9 -3 12 4 8 5 -4 8
-16 5 -27 -5 -18 5 -25 30 -21 5 1 6 -3 2 -9 -3 -6 -11 -8 -16 -5 -5 4 -9 2
-9 -3 0 -6 7 -12 15 -16 18 -7 20 -47 3 -65 -10 -11 -10 -13 0 -7 8 5 12 0 12
-13 0 -12 5 -21 11 -21 6 0 9 -7 5 -15 -3 -8 0 -20 7 -27 7 -8 13 -20 15 -28
2 -8 11 -23 19 -32 8 -10 13 -24 9 -33 -3 -9 1 -26 9 -39 8 -12 13 -25 10 -28
-3 -2 4 -13 14 -22 11 -10 17 -25 14 -34 -4 -10 -2 -13 5 -8 7 4 12 2 12 -4 0
-7 9 -23 20 -37 11 -14 18 -29 15 -33 -3 -4 4 -10 15 -13 11 -3 20 -12 20 -20
0 -10 7 -15 19 -12 13 2 18 -1 15 -9 -3 -9 3 -13 21 -13 18 0 27 6 31 23 3 13
10 21 15 18 5 -3 9 1 10 8 3 64 9 92 21 99 9 6 9 9 1 9 -12 0 -12 45 0 57 11
10 8 25 -3 18 -17 -11 -11 3 11 23 18 18 18 20 3 26 -15 6 -15 8 2 28 11 12
13 18 7 14 -18 -10 -16 -1 3 18 8 9 11 16 5 16 -6 0 -11 7 -11 16 0 8 4 13 9
10 5 -3 11 10 13 29 2 19 -1 37 -7 39 -6 3 -6 5 2 5 6 1 9 10 5 23 -4 17 -2
20 13 14 15 -5 16 -4 5 9 -7 8 -9 15 -4 15 5 0 2 5 -6 10 -13 8 -12 10 4 10
10 0 16 5 13 13 -5 15 18 39 28 29 4 -4 0 5 -10 21 -9 15 -15 28 -11 28 3 1
11 3 16 4 6 1 14 3 19 4 5 0 8 13 5 27 -3 19 -1 24 8 18 7 -4 6 1 -3 11 -15
15 -15 20 -2 46 8 16 12 33 9 38 -3 5 1 14 9 21 9 7 13 21 10 31 -4 12 1 22
15 29 12 7 19 18 16 25 -3 8 -1 17 4 20 6 4 10 18 10 32 0 22 2 24 15 13 13
-11 14 -10 9 4 -3 9 -1 16 5 16 6 0 8 7 5 15 -4 10 -1 14 7 12 8 -2 11 -2 7 0
-15 8 -8 25 7 19 10 -4 15 1 15 15 0 11 4 18 9 14 5 -3 13 -1 16 5 4 6 1 9 -5
8 -7 -2 -14 4 -15 13 -2 11 3 15 14 12 15 -4 17 1 13 26 -3 20 0 31 7 31 7 0
9 -5 5 -12 -5 -9 -2 -8 10 1 13 11 14 16 4 22 -10 7 -10 9 -1 9 7 0 12 3 12 8
-6 33 4 51 36 67 27 12 35 21 30 35 -4 13 0 20 16 25 17 6 19 9 8 16 -12 7
-11 9 1 10 8 1 18 1 23 0 4 0 7 4 7 10 0 6 -7 9 -15 6 -8 -4 -17 -2 -20 4 -4
5 -1 8 7 7 7 -2 14 6 16 17 1 11 16 29 32 40 17 11 30 26 30 33 0 6 5 12 11
12 6 0 8 7 5 16 -5 13 -4 14 7 5 11 -8 16 -6 23 12 6 12 10 34 9 48 -1 18 3
25 12 22 7 -3 17 6 22 20 9 24 44 44 65 38 5 -1 4 5 -4 13 -12 16 -4 22 23 17
4 -1 3 9 -4 21 -6 13 -8 20 -4 16 5 -4 15 -2 23 4 15 13 49 21 37 10 -4 -4
-12 -7 -18 -7 -7 0 -13 -9 -15 -20 -8 -52 -14 -65 -30 -65 -15 -1 -15 -2 2
-15 16 -12 17 -15 4 -15 -9 0 -18 -3 -21 -7 -2 -5 -2 -1 0 7 3 12 2 12 -8 3
-10 -10 -9 -16 1 -28 12 -15 11 -16 -6 -13 -15 2 -18 -2 -16 -19 2 -12 -2 -24
-8 -28 -6 -3 -8 -11 -5 -16 4 -5 0 -9 -7 -9 -9 0 -9 -3 2 -10 10 -6 11 -10 3
-10 -7 0 -13 -7 -13 -15 0 -8 -5 -15 -11 -15 -7 0 -9 -10 -5 -26 4 -15 3 -23
-3 -20 -5 3 -12 -1 -15 -10 -9 -22 -8 -26 6 -18 7 4 8 3 4 -4 -4 -7 -14 -12
-23 -12 -11 0 -9 -5 8 -18 l22 -19 -24 1 c-20 1 -23 -3 -21 -23 2 -14 -5 -33
-19 -47 -12 -13 -19 -24 -15 -24 3 0 -1 -14 -10 -31 -10 -20 -15 -49 -12 -80
1 -27 -1 -49 -5 -49 -5 0 -5 -5 -2 -10 3 -6 -1 -13 -9 -16 -9 -3 -16 -10 -16
-16 0 -5 5 -6 11 -2 8 4 9 -1 4 -15 -4 -13 -1 -28 5 -36 10 -12 9 -15 -3 -15
-22 0 -32 -20 -16 -31 10 -6 11 -9 2 -9 -7 0 -13 -11 -13 -25 0 -14 -6 -25
-12 -25 -10 0 -9 -3 1 -9 9 -6 12 -20 9 -40 -3 -19 0 -32 9 -35 7 -3 13 -10
13 -17 0 -6 -6 -9 -14 -6 -12 5 -14 -5 -10 -54 3 -43 1 -59 -8 -59 -9 0 -8 -3
2 -10 11 -7 11 -10 2 -10 -7 0 -10 -4 -7 -10 3 -5 1 -10 -4 -10 -6 0 -11 -5
-11 -11 0 -5 4 -7 10 -4 5 3 10 1 10 -5 0 -6 -9 -10 -20 -8 -10 2 -19 -1 -19
-7 -1 -5 5 -10 12 -11 29 -2 31 -5 12 -20 -20 -16 -20 -16 1 -10 14 4 21 2 21
-9 0 -8 -3 -13 -5 -10 -9 9 -29 -40 -21 -51 5 -6 7 -20 4 -33 -2 -14 0 -19 7
-15 7 5 9 1 5 -9 -3 -10 -2 -17 2 -17 5 0 8 -25 7 -56 -2 -39 2 -58 11 -61 7
-3 10 -10 6 -16 -10 -16 -11 -47 -2 -52 4 -3 6 -18 5 -35 -1 -16 3 -30 8 -30
6 0 4 -5 -4 -10 -12 -8 -10 -10 10 -11 14 0 19 -3 12 -6 -17 -7 -15 -30 4 -41
9 -5 17 -21 17 -36 0 -15 6 -30 13 -33 8 -3 14 -9 14 -15 0 -5 -4 -7 -9 -4 -5
3 -12 -1 -15 -10 -3 -8 -2 -13 3 -10 4 3 15 0 24 -7 15 -11 15 -15 3 -39 -8
-16 -11 -28 -5 -28 5 0 9 -5 9 -11 0 -5 -6 -7 -12 -4 -7 4 -5 0 5 -8 10 -8 16
-19 15 -25 -2 -6 6 -18 17 -27 11 -9 14 -14 8 -10 -7 3 -13 2 -13 -3 0 -5 9
-12 21 -15 12 -3 18 -10 14 -16 -3 -6 0 -25 9 -41 19 -40 11 -38 -14 3 -11 17
-20 28 -20 24 0 -16 33 -72 53 -90 23 -20 35 -63 15 -51 -9 6 -9 3 1 -9 7 -9
18 -14 25 -10 7 4 7 1 -1 -7 -10 -11 -9 -16 5 -27 10 -9 11 -12 2 -7 -13 7
-13 5 -1 -9 7 -9 10 -17 6 -17 -4 0 -2 -7 5 -15 6 -8 9 -19 5 -25 -4 -6 -1 -9
7 -8 7 2 12 -3 10 -11 -3 -12 0 -12 12 -1 9 7 16 9 17 4 1 -5 2 -22 4 -38 1
-16 9 -33 18 -38 10 -5 14 -15 10 -25 -5 -12 -2 -15 9 -11 11 5 14 1 10 -18
-2 -14 0 -24 7 -24 6 0 11 -7 11 -15 0 -8 4 -15 10 -15 5 0 6 -7 3 -17 -4 -10
-2 -14 5 -9 6 3 13 2 17 -4 3 -5 0 -10 -7 -10 -7 0 -1 -8 15 -18 15 -10 24
-22 20 -27 -5 -4 0 -5 9 -2 13 4 16 1 13 -14 -2 -11 -1 -18 3 -15 4 2 13 -2
20 -10 7 -8 10 -14 6 -14 -3 0 0 -8 7 -17 9 -11 10 -14 2 -9 -9 5 -11 2 -7 -8
3 -9 9 -14 14 -11 4 2 6 -7 4 -20 -3 -31 4 -32 17 -2 9 21 9 21 6 -5 -3 -18 0
-25 8 -21 19 7 57 -53 51 -79 -3 -13 -3 -17 0 -10 6 13 25 17 23 5 -3 -21 2
-34 11 -28 6 4 10 3 9 -2 -4 -21 2 -34 13 -27 6 4 8 3 5 -3 -4 -6 0 -19 8 -29
8 -10 15 -25 15 -33 0 -7 16 -29 36 -47 19 -19 32 -39 28 -45 -4 -8 1 -9 17
-4 13 4 21 4 17 0 -4 -4 -3 -16 3 -27 6 -11 12 -29 14 -40 3 -12 10 -25 16
-28 6 -4 10 -11 9 -16 -1 -4 7 -11 17 -15 12 -5 13 -8 3 -8 -11 -1 -11 -4 -2
-13 7 -7 12 -20 12 -30 0 -10 7 -21 15 -24 8 -4 15 -13 15 -20 0 -8 6 -17 14
-20 9 -4 12 -16 9 -41 -4 -28 -2 -34 9 -28 10 6 11 5 1 -6 -18 -18 -16 -40 2
-33 8 4 12 11 8 18 -3 6 -2 7 2 3 12 -10 15 -38 4 -31 -5 3 -9 0 -9 -5 0 -6 5
-11 10 -11 6 0 10 -9 10 -21 0 -11 4 -18 9 -14 6 3 9 -4 8 -15 -1 -11 -5 -20
-10 -20 -4 0 1 -10 12 -22 11 -11 18 -25 15 -30 -3 -5 -2 -8 3 -7 20 3 23 -2
12 -22 -7 -13 -7 -24 -2 -28 14 -9 22 -61 10 -61 -6 0 -6 -4 1 -12 5 -7 9 -39
8 -70 -2 -38 1 -55 8 -52 6 3 0 -5 -14 -17 -17 -15 -19 -20 -7 -16 9 4 17 2
17 -3 0 -6 -4 -10 -9 -10 -5 0 -7 -18 -5 -40 4 -30 0 -45 -15 -61 -11 -12 -18
-26 -15 -31 3 -5 0 -16 -7 -24 -17 -21 -21 -46 -6 -37 8 5 8 2 0 -9 -7 -8 -10
-18 -6 -21 3 -4 1 -7 -5 -7 -13 0 -72 -58 -70 -69 3 -15 -23 -61 -34 -61 -9 0
-8 -3 2 -10 13 -8 12 -10 -2 -10 -10 0 -18 -5 -18 -11 0 -6 -7 -17 -15 -26 -8
-8 -12 -20 -8 -26 4 -7 0 -8 -11 -4 -15 6 -17 3 -11 -23 6 -27 4 -30 -20 -30
-14 0 -33 -6 -40 -12 -34 -31 -50 -43 -52 -40 -2 1 -2 1 -1 0 5 -9 -25 -47
-35 -45 -7 1 -11 -3 -10 -10 3 -15 -68 -75 -83 -69 -6 2 -17 -4 -25 -15 -7
-10 -19 -19 -27 -19 -7 0 -10 -4 -7 -10 3 -6 2 -10 -3 -10 -5 0 -12 -8 -15
-19 -3 -13 -12 -18 -30 -16 -15 2 -28 -3 -31 -11 -4 -10 -2 -13 7 -8 7 4 9 3
4 -2 -5 -5 -13 -10 -18 -10 -5 -1 -13 -2 -18 -3 -5 0 -12 -8 -15 -17 -4 -10
-2 -13 7 -8 8 5 8 2 -2 -9 -7 -9 -17 -14 -22 -12 -4 3 -13 -4 -20 -16 -9 -17
-13 -19 -20 -8 -7 11 -9 11 -9 -3 0 -11 -5 -15 -15 -12 -10 4 -15 0 -15 -11 0
-11 -5 -15 -16 -11 -8 3 -12 2 -9 -4 5 -8 -4 -11 -30 -10 -9 1 -35 -28 -35
-38 0 -5 -9 -17 -19 -26 -14 -13 -21 -14 -27 -5 -4 7 -3 10 4 5 6 -3 13 -2 16
3 9 14 -22 7 -37 -9 -10 -10 -9 -11 3 -5 8 4 2 -4 -15 -18 -17 -15 -34 -22
-39 -17 -13 12 -48 -8 -41 -23 4 -7 0 -4 -8 6 -15 18 -15 18 -22 -2 -7 -23
-20 -27 -31 -10 -5 8 -10 6 -16 -5 -6 -11 -17 -15 -31 -12 -12 3 -16 3 -10 0
28 -12 10 -21 -41 -20 -42 1 -52 -2 -44 -11 8 -9 7 -13 -3 -14 -8 0 -23 -3
-34 -5 -11 -3 -26 -6 -33 -6 -7 -1 -10 -8 -7 -17 3 -11 0 -9 -11 4 -16 20 -16
20 -11 -3 3 -15 1 -20 -6 -15 -18 11 -62 7 -60 -5 2 -8 -4 -9 -20 -3 -14 6
-31 4 -50 -6 -23 -11 -28 -12 -33 0 -2 8 -11 14 -19 14 -11 0 -12 -4 -4 -13 8
-10 6 -12 -10 -9 -12 2 -25 6 -30 9 -5 4 -11 1 -13 -6 -2 -6 -23 -12 -45 -12
-23 -1 -39 2 -37 5 2 4 -3 9 -11 13 -8 3 -17 1 -19 -3 -3 -5 -17 -6 -31 -3
-15 2 -25 0 -25 -8 0 -8 -12 -10 -35 -7 -22 3 -35 1 -35 -7 0 -6 -4 -5 -9 3
-6 9 -18 11 -34 7 -14 -3 -29 -2 -32 4 -9 15 -38 13 -29 -2 6 -10 4 -10 -7 -1
-14 14 -33 18 -25 5 2 -4 -4 -8 -15 -8 -10 0 -19 5 -19 11 0 5 -5 3 -10 -5 -6
-9 -10 -11 -10 -3 0 7 -7 10 -17 6 -11 -4 -14 -3 -9 5 5 9 1 10 -16 4 -13 -5
-33 -7 -45 -6 -13 0 -23 -3 -23 -9 0 -6 -3 -7 -6 -4 -9 9 -46 -12 -39 -22 3
-5 -2 -12 -11 -15 -12 -5 -14 -10 -5 -20 6 -7 8 -16 4 -19 -3 -4 1 -7 10 -7
11 0 14 -5 10 -17 -3 -10 -3 -15 2 -11 4 4 14 0 22 -10 14 -16 14 -16 9 3 -6
19 -5 19 8 1 8 -10 19 -15 25 -11 6 3 11 -1 11 -10 0 -9 5 -13 10 -10 6 3 11
-1 11 -9 3 -30 4 -34 13 -43 5 -5 6 -3 2 5 -4 6 -2 12 5 12 6 0 9 -8 6 -20 -5
-19 8 -26 36 -21 5 1 6 -3 2 -9 -9 -14 14 -52 27 -44 5 4 14 0 19 -7 7 -12 9
-12 9 0 0 9 8 6 23 -10 13 -13 45 -35 72 -49 28 -14 52 -28 53 -33 2 -4 8 -5
13 -1 5 3 9 1 9 -4 0 -17 79 -62 110 -62 19 0 30 -5 30 -14 0 -8 14 -21 30
-30 17 -8 30 -11 30 -6 0 13 41 -1 61 -21 9 -9 15 -19 13 -21 -2 -3 3 -5 11
-5 8 0 12 4 9 9 -3 4 2 8 10 8 8 0 17 -9 21 -19 4 -12 12 -18 21 -14 7 3 14 1
14 -5 0 -6 12 -9 28 -7 15 2 37 -3 50 -11 16 -10 22 -11 22 -2 0 6 11 1 25
-12 14 -13 25 -20 25 -16 0 5 8 2 18 -5 15 -13 16 -12 3 3 -7 10 -17 15 -22
12 -5 -3 -9 0 -9 5 0 16 8 14 48 -11 20 -12 33 -17 29 -12 -3 6 0 11 8 11 8 0
12 -5 8 -10 -3 -5 10 -7 31 -4 27 4 36 2 33 -7 -3 -7 1 -13 9 -13 8 0 14 5 14
10 0 6 5 6 13 0 18 -14 70 -15 61 -1 -4 7 -3 8 4 4 23 -14 56 -15 70 -3 18 15
15 15 36 -3 25 -20 46 -22 39 -3 -4 11 -1 14 13 11 10 -2 18 -10 16 -17 -1 -7
2 -10 8 -6 6 3 8 11 5 16 -4 5 -2 9 4 9 5 0 13 -5 17 -11 4 -7 9 -8 13 -1 3 5
22 11 41 13 19 2 39 5 45 8 19 10 50 8 57 -3 5 -7 8 -7 8 -1 0 6 20 10 44 10
24 0 42 2 40 4 -9 9 18 29 32 24 8 -3 21 0 29 7 12 10 15 10 15 -1 0 -8 9 -4
21 11 l20 25 -6 -25 c-6 -23 -5 -24 9 -6 8 10 19 15 25 11 6 -3 11 -1 11 6 0
8 5 7 17 -2 10 -8 14 -9 10 -2 -10 17 13 28 24 12 7 -11 9 -11 9 -1 0 7 5 10
10 7 6 -3 13 1 16 10 4 9 12 14 20 11 7 -3 18 2 25 10 7 9 21 13 31 11 10 -3
16 -2 13 3 -3 4 2 10 10 14 8 3 17 1 20 -4 10 -16 25 -11 25 7 0 21 7 14 12
-12 1 -11 -1 -20 -7 -20 -16 -1 -52 -24 -37 -25 8 0 6 -6 -5 -18 -10 -11 -21
-17 -25 -15 -5 2 -13 1 -20 -3 -8 -5 -6 -10 8 -15 17 -7 17 -8 -3 -8 -16 -1
-23 -7 -23 -22 0 -11 -10 -35 -22 -52 -13 -18 -23 -36 -23 -40 0 -5 -11 -16
-24 -26 -17 -13 -22 -25 -18 -40 3 -11 1 -21 -5 -21 -5 0 -6 -5 -3 -10 3 -5 2
-10 -4 -10 -6 0 -8 -7 -5 -15 4 -10 0 -15 -11 -15 -11 0 -15 -5 -11 -15 3 -8
1 -15 -3 -15 -5 0 -12 -7 -15 -16 -4 -9 -2 -13 5 -8 7 4 10 1 7 -7 -3 -8 -12
-14 -20 -13 -10 1 -14 -8 -13 -27 1 -18 -3 -29 -12 -29 -7 0 -13 -7 -13 -16 0
-9 -5 -12 -12 -8 -7 4 -8 3 -4 -5 4 -6 3 -18 -3 -25 -6 -7 -8 -22 -4 -31 4
-12 3 -16 -4 -12 -6 4 -14 0 -17 -9 -4 -10 -2 -13 6 -8 7 5 8 3 4 -5 -5 -7
-15 -10 -23 -6 -13 4 -14 3 -4 -9 9 -10 9 -20 2 -34 -5 -10 -8 -30 -5 -43 4
-17 3 -20 -4 -11 -7 11 -11 10 -16 -3 -4 -11 0 -22 10 -30 16 -11 16 -12 -1
-18 -11 -5 -15 -13 -11 -23 5 -13 3 -14 -7 -6 -10 8 -13 6 -14 -10 -1 -12 -8
-25 -15 -29 -7 -5 -8 -9 -2 -9 5 0 16 6 24 13 12 10 12 9 1 -5 -7 -9 -10 -21
-7 -26 3 -6 -2 -9 -11 -8 -9 0 -18 -5 -21 -13 -3 -8 0 -11 6 -7 7 4 6 -5 -1
-24 -7 -17 -13 -26 -15 -20 -2 5 -8 8 -12 5 -5 -3 -7 -12 -3 -20 3 -9 -1 -15
-11 -15 -13 0 -14 -5 -6 -26 8 -19 6 -29 -5 -41 -11 -11 -13 -19 -5 -28 8 -9
6 -14 -5 -18 -8 -4 -12 -13 -9 -21 4 -10 -3 -20 -20 -27 -14 -7 -24 -15 -22
-18 3 -3 -3 -15 -11 -26 -13 -16 -15 -17 -10 -2 10 27 -2 20 -13 -9 -7 -17
-15 -24 -25 -20 -8 3 -15 1 -15 -5 0 -6 -5 -7 -12 -3 -6 4 -8 3 -5 -3 8 -13
-17 -36 -28 -25 -5 4 -5 1 -1 -5 4 -8 2 -13 -5 -13 -7 0 -9 -3 -6 -7 8 -7 -52
-63 -67 -63 -6 0 -4 5 4 10 9 6 10 10 3 10 -6 0 -26 -15 -44 -32 -18 -18 -29
-26 -25 -18 7 13 6 13 -6 0 -18 -21 -82 -65 -74 -51 11 17 -30 14 -47 -4 -8
-8 -17 -11 -21 -8 -3 4 -6 0 -6 -8 0 -11 -2 -11 -10 1 -8 12 -10 12 -10 -5 0
-15 -2 -17 -9 -6 -6 9 -10 10 -16 2 -5 -9 -11 -9 -23 1 -13 11 -14 11 -7 -1 6
-11 4 -13 -10 -8 -9 4 -24 2 -31 -4 -8 -6 -14 -8 -14 -4 0 4 -8 1 -17 -6 -15
-12 -16 -12 -8 1 8 13 7 13 -8 1 -9 -7 -17 -10 -17 -7 0 4 -8 2 -18 -3 -13 -7
-26 -6 -43 2 -27 14 -73 11 -63 -4 3 -5 10 -7 15 -4 5 4 9 4 9 0 0 -3 -10 -9
-22 -14 -12 -4 -22 -17 -23 -29 -1 -12 2 -19 7 -16 5 3 7 -6 4 -20 -3 -14 0
-29 6 -32 7 -5 8 -2 4 7 -4 8 0 5 8 -5 9 -11 19 -17 22 -13 4 3 21 -4 38 -16
34 -24 35 -24 46 -7 6 9 13 9 28 1 24 -13 45 -15 39 -3 -6 9 89 9 98 0 4 -4
20 -1 36 8 16 8 29 11 29 7 0 -5 5 0 11 10 5 9 17 17 25 17 10 0 12 -5 8 -12
-6 -10 -4 -10 7 -2 8 6 25 11 39 10 18 -1 26 4 26 15 0 10 -6 15 -16 12 -8 -2
-4 2 9 10 14 8 31 13 38 10 7 -3 13 2 13 12 0 9 4 14 9 10 5 -3 12 -1 15 3 3
5 16 8 29 7 16 -2 29 6 43 26 18 27 44 43 28 17 -4 -7 -3 -8 4 -4 7 4 12 13
12 19 0 7 12 20 25 30 22 16 25 16 25 2 0 -10 5 -13 13 -9 7 5 7 2 -2 -10 -8
-9 -10 -16 -4 -14 6 2 11 -1 11 -7 0 -5 -4 -9 -9 -8 -5 2 -7 -24 -4 -57 2 -33
0 -62 -5 -65 -5 -3 -7 -20 -5 -37 2 -17 -1 -40 -7 -51 -7 -14 -7 -17 1 -13 6
4 11 1 12 -6 0 -7 2 -34 5 -60 3 -31 1 -48 -6 -48 -6 0 -8 5 -4 12 4 7 3 8 -4
4 -6 -4 -9 -13 -6 -21 4 -8 11 -12 17 -8 6 3 7 1 3 -6 -4 -6 -3 -18 3 -25 8
-9 7 -13 -4 -13 -8 0 -11 5 -8 11 3 6 0 5 -8 -2 -10 -9 -11 -15 -2 -20 6 -4
13 -18 14 -32 2 -14 9 -28 14 -32 6 -4 1 -8 -10 -8 -18 -1 -19 -1 -2 -11 13
-8 15 -14 7 -30 -9 -15 -7 -21 5 -26 13 -5 14 -7 3 -14 -10 -7 -9 -9 4 -9 9 0
19 -4 22 -9 4 -5 -4 -7 -16 -4 -23 5 -23 5 -3 -11 11 -10 14 -14 7 -11 -11 6
-12 3 -3 -12 12 -24 11 -63 -3 -63 -5 0 -1 -7 10 -16 10 -8 13 -13 7 -9 -16 8
-17 -7 -1 -23 7 -7 8 -12 4 -12 -5 0 -3 -6 3 -14 6 -8 10 -20 9 -27 -2 -8 2
-13 8 -12 6 1 11 -4 11 -12 0 -8 -4 -12 -9 -9 -4 3 -8 0 -8 -5 0 -6 6 -11 13
-11 8 0 12 -13 12 -35 -1 -20 2 -38 7 -41 5 -3 6 -10 2 -15 -3 -5 -2 -9 3 -8
25 4 35 -3 30 -21 -3 -10 -1 -20 5 -22 5 -2 10 -13 11 -26 0 -12 4 -22 8 -22
9 0 6 -20 -4 -36 -4 -7 -1 -11 6 -10 6 0 13 -3 15 -9 2 -5 10 -17 18 -26 9
-10 13 -28 10 -43 -3 -16 0 -25 7 -23 7 1 11 -4 10 -11 -2 -6 2 -12 8 -12 5 0
7 -5 3 -12 -5 -8 -2 -9 9 -5 11 4 17 1 17 -7 0 -7 7 -19 15 -26 9 -7 14 -19
11 -27 -3 -7 1 -13 10 -13 8 0 12 -5 9 -10 -3 -6 1 -13 9 -16 9 -3 16 -15 16
-25 0 -10 5 -19 11 -19 5 0 7 -4 4 -10 -3 -5 1 -10 10 -10 9 0 13 -4 10 -10
-3 -5 18 -33 47 -62 28 -29 46 -44 38 -34 -10 13 -10 17 -3 12 7 -4 18 -16 23
-26 9 -16 8 -19 -7 -14 -13 4 -12 0 6 -15 12 -12 27 -19 31 -16 4 3 10 -4 13
-15 3 -11 0 -18 -6 -17 -6 1 -13 -8 -15 -20 -2 -13 -8 -23 -13 -23 -6 0 -7 6
-3 13 4 7 3 9 -2 4 -5 -5 -9 -13 -9 -18 0 -5 -4 -9 -8 -8 -5 0 -14 -7 -21 -17
-7 -9 -18 -14 -24 -10 -7 4 -12 2 -12 -4 0 -6 -5 -8 -10 -5 -7 4 -9 -3 -5 -22
5 -21 4 -24 -4 -13 -6 8 -11 10 -11 4 0 -6 -11 -16 -25 -22 -14 -6 -25 -16
-25 -22 0 -6 5 -8 12 -4 7 4 8 3 4 -4 -5 -9 -13 -9 -28 -1 -15 8 -19 8 -14 0
4 -6 0 -11 -8 -11 -14 0 -20 -12 -17 -32 0 -5 -2 -8 -7 -7 -15 2 -52 -14 -52
-22 0 -5 -7 -9 -15 -9 -8 0 -15 -4 -15 -10 0 -5 8 -7 18 -4 14 5 14 4 2 -4
-10 -8 -18 -8 -27 0 -12 10 -17 4 -14 -15 1 -4 -6 -10 -14 -13 -10 -4 -13 -15
-10 -33 5 -22 4 -23 -4 -6 -7 14 -10 15 -10 5 -1 -13 -2 -13 -11 0 -6 10 -10
11 -10 3 0 -7 -7 -13 -16 -13 -8 0 -12 -4 -9 -10 3 -5 1 -10 -6 -10 -7 0 -9
-10 -7 -25 3 -13 2 -22 -2 -20 -9 6 -46 -46 -42 -58 1 -5 -2 -6 -8 -2 -5 3
-10 1 -10 -5 0 -6 -4 -8 -10 -5 -5 3 -10 -1 -10 -9 0 -14 -11 -18 -36 -15 -3
0 -12 -8 -19 -18 -10 -13 -10 -22 -3 -31 8 -9 7 -11 -4 -7 -10 4 -17 -1 -21
-16 -4 -14 -11 -20 -21 -16 -9 4 -21 -2 -29 -13 -8 -11 -17 -17 -21 -13 -4 4
-4 0 0 -10 4 -10 1 -17 -6 -17 -7 0 -10 -7 -6 -15 3 -8 1 -15 -4 -15 -6 0 -9
-5 -7 -11 1 -6 -4 -14 -12 -17 -9 -3 -11 0 -7 9 4 8 0 5 -8 -5 -9 -11 -16 -23
-16 -27 0 -4 -8 -6 -18 -5 -15 3 -43 -15 -42 -29 1 -21 -2 -25 -17 -25 -16 0
-16 2 -3 11 11 8 9 9 -10 3 -14 -4 -26 -10 -28 -14 -7 -19 -40 -49 -46 -43 -3
3 -6 1 -6 -5 0 -7 5 -12 12 -12 6 0 8 -3 5 -6 -4 -4 -13 -1 -21 5 -13 11 -15
9 -11 -7 2 -12 -3 -23 -12 -26 -8 -4 -13 -12 -10 -20 3 -7 0 -13 -6 -13 -32 1
-48 -4 -42 -12 3 -6 -3 -15 -14 -21 -11 -6 -18 -17 -15 -24 3 -9 -3 -17 -16
-21 -12 -4 -19 -9 -16 -12 3 -4 0 -13 -7 -21 -10 -13 -9 -14 3 -7 8 5 2 -5
-15 -21 -16 -16 -34 -28 -39 -25 -5 2 -6 -1 -2 -8 5 -7 0 -19 -10 -27 -11 -9
-13 -12 -5 -8 10 5 12 3 7 -5 -5 -7 -15 -10 -23 -7 -8 3 -12 2 -9 -3 8 -13
-21 -34 -35 -25 -8 4 -9 3 -5 -4 4 -7 1 -12 -8 -12 -8 0 -18 -5 -22 -12 -4 -6
-3 -8 4 -4 6 4 10 -1 9 -13 0 -11 -4 -18 -8 -15 -4 2 -10 -3 -13 -12 -3 -8
-10 -12 -16 -9 -5 3 -10 -1 -10 -9 0 -9 -5 -16 -11 -16 -5 0 -7 5 -3 12 4 7 3
8 -5 4 -6 -4 -9 -11 -6 -16 3 -5 -3 -18 -15 -30 -22 -22 -23 -29 -8 -47 16
-19 2 -16 -18 4 -17 17 -18 17 -11 0 4 -11 1 -20 -8 -23 -8 -4 -13 -9 -10 -14
2 -4 -7 -17 -20 -28 -14 -12 -25 -19 -25 -15 0 4 -7 -2 -15 -13 -8 -10 -15
-15 -15 -11 0 4 -6 2 -14 -5 -7 -7 -11 -19 -9 -25 3 -7 -2 -13 -12 -13 -9 0
-14 -4 -11 -9 6 -9 -22 -26 -37 -22 -5 1 -6 -3 -3 -8 3 -5 16 -7 29 -4 21 4
21 4 4 -10 -10 -8 -28 -13 -40 -11 -12 2 -16 2 -10 -2 10 -4 10 -10 1 -27 -7
-12 -11 -25 -10 -29 1 -3 -5 -9 -13 -12 -8 -3 -15 0 -15 7 0 7 -5 4 -11 -6 -6
-9 -14 -15 -18 -13 -4 3 -8 -1 -8 -9 0 -8 4 -12 9 -9 4 3 8 -1 8 -8 -1 -16
-25 -49 -37 -50 -4 0 -7 -3 -6 -7 1 -4 -8 -8 -20 -8 -21 -2 -22 -1 -3 13 11 8
16 14 11 14 -5 0 0 7 11 16 18 14 18 15 -3 4 -13 -6 -23 -15 -23 -21 0 -6 -4
-8 -9 -5 -5 4 -8 -2 -7 -11 2 -10 -5 -24 -14 -33 -10 -9 -10 -11 -1 -5 11 7
13 7 7 -3 -7 -12 -18 -56 -19 -79 0 -6 -7 -9 -14 -6 -9 3 -16 -2 -19 -15 -4
-14 -12 -18 -27 -15 -18 4 -20 3 -7 -7 13 -10 11 -11 -7 -7 -17 4 -21 1 -17
-16 2 -12 -4 -26 -17 -34 -11 -8 -19 -20 -18 -26 3 -26 -2 -35 -21 -40 -11 -3
-20 -10 -20 -17 0 -6 5 -8 12 -4 7 4 8 3 4 -4 -5 -8 -13 -9 -25 -2 -21 11 -32
4 -24 -16 3 -9 -2 -12 -16 -9 -12 2 -19 0 -16 -4 2 -5 -2 -14 -10 -21 -7 -6
-11 -18 -8 -26 3 -9 -1 -14 -12 -14 -9 0 -16 -7 -14 -17 3 -31 -1 -44 -10 -39
-11 7 -23 -22 -16 -35 4 -5 -1 -6 -11 -2 -13 5 -15 2 -9 -16 4 -15 3 -21 -7
-19 -7 2 -13 -4 -13 -12 0 -18 -19 -40 -35 -40 -7 0 -10 -6 -7 -13 3 -8 -3
-20 -13 -27 -18 -13 -18 -14 -2 -26 15 -12 15 -13 -6 -9 -23 4 -31 -10 -9 -18
8 -4 7 -6 -4 -6 -28 -2 -40 -23 -21 -38 15 -11 14 -12 -10 -3 -19 6 -29 6 -34
-2 -4 -7 -3 -8 4 -4 7 4 12 2 12 -3 0 -6 -4 -11 -9 -11 -9 0 -26 -48 -23 -62
1 -5 -6 -8 -16 -8 -14 0 -15 -2 -2 -10 13 -8 12 -10 -5 -11 -11 -1 -23 -1 -27
0 -4 0 -5 -6 -2 -14 5 -13 987 -15 8475 -15 7592 0 8468 2 8463 15 -4 9 -15
20 -26 26 -13 7 -18 17 -15 30 3 10 1 17 -4 13 -5 -3 -9 4 -9 16 0 11 -7 23
-16 27 -13 5 -13 7 -2 14 10 7 9 9 -3 9 -15 0 -33 32 -30 52 1 5 -4 8 -10 8
-5 0 -7 4 -4 10 6 9 -8 15 -29 11 -5 -1 -6 5 -2 14 3 9 0 18 -7 21 -7 2 -14
14 -14 27 -1 12 -6 31 -12 42 -5 11 -12 28 -15 38 -3 9 -15 17 -28 17 -19 0
-20 1 -5 12 15 12 15 15 0 33 -13 16 -15 17 -10 3 4 -10 3 -18 -2 -18 -5 0
-12 11 -15 25 -4 14 -11 25 -17 25 -6 0 -7 5 -4 10 3 6 1 10 -5 10 -7 0 -9 7
-6 16 7 18 -21 77 -34 69 -13 -8 -39 34 -35 56 2 10 -1 19 -6 19 -6 0 -7 5 -4
10 3 6 2 10 -4 10 -5 0 -11 -3 -14 -7 -2 -5 -2 -2 0 5 1 7 -4 23 -12 36 -8 12
-12 27 -8 31 5 5 0 3 -10 -5 -10 -7 -17 -9 -16 -4 5 26 -2 45 -13 38 -10 -6
-10 -4 0 8 9 12 10 18 2 23 -7 4 -10 15 -7 24 3 14 -1 17 -19 13 -19 -3 -24 0
-24 16 0 11 -7 23 -16 26 -8 3 -13 10 -10 15 3 5 0 11 -8 14 -9 4 -12 14 -9
26 4 15 1 21 -11 21 -10 0 -14 5 -11 10 3 6 -1 13 -9 16 -9 3 -13 10 -10 15 3
5 -2 12 -10 15 -8 3 -18 15 -22 26 -5 16 -8 18 -15 7 -6 -10 -9 -8 -9 9 0 12
-5 22 -11 22 -8 0 -7 5 1 15 11 13 10 14 -4 9 -12 -5 -15 -2 -10 10 3 9 1 22
-5 30 -6 7 -7 17 -3 21 4 5 1 5 -5 1 -8 -4 -13 -1 -13 9 0 9 -16 31 -35 51
-33 33 -48 63 -23 48 7 -4 8 -3 4 5 -4 6 -11 9 -16 6 -4 -3 -11 7 -14 21 -5
20 -10 23 -20 15 -10 -9 -13 -6 -11 14 2 14 0 23 -4 21 -10 -7 -41 31 -41 49
0 8 -9 15 -20 15 -11 0 -20 5 -20 11 0 5 4 7 10 4 6 -3 7 1 4 9 -3 9 -10 16
-16 16 -5 0 -6 5 -2 12 4 6 3 8 -3 5 -6 -4 -19 6 -29 21 -9 15 -29 38 -43 51
-14 13 -20 20 -14 17 9 -5 11 -2 7 8 -3 9 -9 15 -12 14 -19 -2 -23 3 -13 16
10 12 8 14 -11 9 -18 -4 -20 -3 -8 6 12 9 11 11 -8 11 -13 0 -20 4 -17 10 3 5
2 10 -4 10 -15 0 -62 46 -54 53 5 6 -8 10 -27 9 -3 0 -6 10 -6 24 l-2 24 20
-23 c17 -19 16 -17 -2 11 -12 17 -24 32 -26 32 -3 0 -2 -5 1 -10 3 -6 2 -10
-3 -10 -6 0 -12 7 -16 15 -3 8 -12 15 -21 15 -8 0 -15 7 -15 15 0 8 -4 15 -9
15 -5 0 -12 8 -15 18 -4 10 -22 25 -42 32 -20 8 -31 16 -24 18 7 3 4 10 -7 19
-11 9 -12 12 -3 8 8 -3 -1 8 -20 26 -19 17 -28 28 -20 25 8 -4 6 -1 -4 8 -10
8 -22 13 -27 11 -4 -3 -10 3 -14 14 -3 11 -13 18 -23 16 -20 -3 -44 14 -36 26
10 16 26 9 20 -8 -5 -16 -4 -16 6 -3 10 11 28 14 67 12 65 -4 102 10 118 44
11 23 10 25 -5 19 -14 -5 -15 -4 -4 6 20 21 14 37 -13 35 -13 -2 -22 1 -19 5
3 5 0 9 -6 9 -6 0 -9 3 -7 8 3 4 -1 12 -8 19 -11 10 -15 10 -19 0 -3 -7 -3 -2
-1 9 3 13 -1 29 -10 38 -9 9 -13 16 -8 16 4 0 0 5 -10 11 -18 10 -18 11 0 26
15 13 16 14 1 9 -12 -4 -16 0 -13 15 2 11 0 17 -4 14 -5 -2 -14 2 -21 10 -11
13 -10 15 6 9 18 -5 18 -5 2 9 -10 8 -15 17 -11 20 3 4 1 7 -6 7 -7 0 -10 10
-7 25 3 15 1 23 -5 20 -5 -4 -6 -11 -3 -17 4 -7 2 -8 -4 -4 -6 4 -9 13 -5 21
3 8 -1 15 -8 15 -7 0 -9 3 -6 6 3 4 2 16 -4 27 -6 10 -7 17 -2 14 10 -6 10 34
0 50 -4 6 -8 24 -9 40 -1 15 -5 33 -9 38 -7 10 -12 48 -10 73 1 8 6 10 14 6 6
-4 2 4 -10 17 -16 18 -19 28 -12 41 6 11 5 19 -3 24 -8 5 -6 10 8 15 18 7 18
8 -1 8 -16 1 -17 3 -5 11 12 8 12 11 -3 28 -9 10 -14 22 -10 25 9 10 11 67 2
67 -9 0 -5 27 6 37 4 4 5 2 0 -6 -6 -10 -4 -12 4 -7 9 6 9 11 0 22 -7 8 -7 14
-1 14 5 0 13 7 16 16 4 9 2 13 -5 8 -8 -4 -9 1 -4 15 4 12 2 21 -4 21 -6 0
-11 7 -11 15 0 8 5 15 10 15 6 0 10 8 10 18 0 14 -2 15 -10 2 -5 -8 -10 -10
-10 -5 0 6 6 17 13 24 9 11 9 14 0 18 -9 3 -6 11 7 26 22 23 26 37 9 37 -6 0
-7 5 -2 13 4 6 9 23 11 37 2 14 7 27 13 28 5 2 9 10 9 18 0 9 5 12 11 8 7 -4
10 -1 7 7 -3 8 -11 13 -17 11 -7 -1 -10 2 -6 7 3 6 12 8 20 4 11 -4 13 -1 9
11 -3 9 -10 16 -15 16 -5 0 -9 4 -9 10 0 5 3 9 8 9 19 -3 25 2 12 11 -13 8
-13 10 2 10 11 0 15 5 12 14 -3 8 3 19 15 26 23 12 23 46 0 61 -11 7 -11 9 3
9 11 0 16 6 13 19 -2 11 3 22 11 25 11 4 15 17 13 40 -2 19 0 38 4 42 4 4 7
20 7 35 0 22 4 27 18 23 15 -5 15 -4 -1 6 -14 9 -16 15 -6 26 6 8 13 31 14 52
4 43 13 91 22 105 3 6 1 7 -6 3 -7 -4 -3 9 8 29 19 35 18 56 -1 81 -5 7 -2 16
7 24 12 10 13 16 3 28 -11 13 -11 14 0 8 12 -7 12 -4 2 14 -6 12 -9 24 -6 27
3 4 1 12 -5 20 -6 7 -7 13 -3 13 15 0 34 38 28 55 -5 13 -9 13 -23 3 -14 -11
-14 -11 -3 3 14 18 12 60 -3 72 -6 4 -4 11 5 17 8 5 12 10 8 10 -4 0 -3 11 2
25 7 17 6 25 -1 25 -8 0 -8 4 -2 13 6 6 9 20 8 30 -2 9 0 17 5 17 5 0 7 8 5
18 -2 9 -4 17 -5 17 -6 0 -5 47 1 57 4 7 1 17 -8 23 -14 10 -13 13 2 28 10 10
12 17 5 17 -8 0 -10 9 -5 28 12 46 11 66 -4 91 -9 13 -16 37 -16 52 0 15 -4
31 -8 35 -13 13 -7 26 9 20 14 -5 15 -4 4 9 -7 8 -10 22 -6 30 3 8 1 15 -4 15
-6 0 -10 -5 -10 -12 0 -6 -3 -9 -6 -5 -3 3 -2 12 2 19 15 23 13 37 -4 31 -11
-5 -14 -2 -9 10 3 8 -1 21 -9 28 -10 8 -11 16 -5 22 5 5 7 16 4 25 -4 9 -2 13
4 9 5 -3 10 0 10 8 0 8 -3 12 -7 10 -4 -2 -7 3 -7 11 0 8 6 13 13 10 7 -3 15
1 17 8 4 9 -2 11 -20 8 -18 -3 -24 -1 -19 7 4 6 11 9 16 6 4 -3 6 4 3 15 -3
11 -9 23 -14 26 -5 3 -6 17 -3 31 4 15 3 24 -2 20 -18 -11 -32 39 -18 64 10
19 9 25 -2 34 -7 5 -14 29 -16 53 -1 23 -6 42 -11 42 -4 0 -6 4 -2 9 3 6 -3
14 -12 20 -17 10 -17 10 1 11 12 0 16 5 12 16 -3 9 -6 20 -6 25 0 6 -4 8 -9 5
-9 -6 -7 37 3 53 4 5 1 13 -5 16 -5 4 -8 13 -5 20 2 7 -2 16 -10 19 -8 3 -14
0 -14 -6 0 -6 -2 -9 -5 -6 -8 8 6 39 15 33 10 -6 21 21 13 29 -4 3 -13 0 -22
-6 -13 -10 -14 -10 -4 1 6 7 9 21 6 30 -4 12 -3 13 5 3 7 -11 10 -11 15 2 4 9
-1 19 -10 24 -14 8 -14 10 1 15 10 4 13 12 9 23 -4 11 -2 15 4 11 7 -4 10 6 8
28 -1 26 2 35 14 35 14 0 14 2 1 10 -8 5 -12 10 -8 10 4 0 3 11 -2 25 -8 20
-7 23 8 18 15 -6 15 -5 3 10 -10 13 -10 17 -1 17 9 0 10 10 6 34 -5 27 -3 37
11 45 16 9 16 12 3 21 -13 8 -12 10 3 10 10 0 15 4 12 10 -3 5 -2 10 4 10 6 0
8 7 5 15 -4 9 0 15 9 15 18 0 30 41 20 67 -6 16 -5 16 11 4 9 -8 16 -10 15 -5
-1 5 0 12 1 17 1 4 3 13 4 20 1 6 7 11 14 10 6 -2 9 4 6 11 -3 8 4 24 15 35
17 17 18 21 5 21 -14 0 -14 1 0 16 19 19 21 28 4 18 -7 -4 -2 5 12 21 14 16
19 25 13 21 -7 -4 -13 -2 -13 3 0 6 4 11 9 11 10 0 24 38 21 59 -1 9 4 12 14
8 8 -3 18 -1 22 5 4 7 3 8 -4 4 -7 -4 -12 -2 -12 4 0 6 -4 9 -8 6 -4 -2 -8 4
-8 14 0 10 5 16 12 13 7 -2 10 5 9 21 -2 15 1 24 6 20 5 -3 9 4 9 15 0 12 6
21 14 21 9 0 13 7 11 20 -2 11 0 20 5 20 4 0 7 20 6 44 -1 25 1 43 5 40 4 -2
10 0 14 6 3 5 1 10 -5 10 -7 0 -6 8 4 21 8 12 12 28 9 37 -4 10 -2 13 5 8 7
-4 12 -2 12 3 0 6 -4 11 -10 11 -5 0 -10 5 -10 11 0 5 4 7 10 4 5 -3 7 0 4 8
-3 8 -1 18 5 21 6 4 8 13 5 21 -3 8 5 21 20 30 21 14 24 21 15 36 -7 14 -6 19
2 19 7 0 9 3 6 7 -4 3 0 17 8 30 9 13 13 28 10 33 -6 10 12 76 28 97 4 6 4 13
0 15 -5 1 -5 26 0 53 9 59 36 85 59 58 9 -12 9 -15 1 -9 -7 4 -13 3 -13 -3 0
-5 5 -13 10 -16 8 -5 7 -11 -1 -21 -7 -9 -8 -14 -3 -12 15 5 57 -39 49 -51 -3
-6 0 -11 8 -11 8 0 18 -7 21 -16 3 -8 10 -13 15 -10 5 4 8 -9 7 -28 -2 -24 1
-33 9 -29 7 2 16 -1 21 -8 4 -8 3 -10 -4 -5 -7 4 -12 2 -12 -3 0 -6 5 -11 11
-11 5 0 7 -4 4 -10 -3 -5 1 -10 10 -10 8 0 18 -7 21 -15 4 -9 15 -13 29 -11
23 4 29 -14 10 -31 -4 -4 -5 -2 -1 5 10 18 1 15 -15 -5 -8 -9 -9 -14 -2 -10 6
4 18 0 27 -8 8 -9 18 -16 21 -15 21 1 25 -1 20 -10 -3 -5 1 -10 10 -10 9 0 13
-4 10 -10 -3 -5 -1 -10 5 -10 6 0 18 -7 26 -15 9 -8 13 -15 9 -15 -3 0 0 -6 7
-14 7 -8 15 -14 18 -14 3 0 12 0 20 -1 13 -1 13 -2 0 -11 -13 -8 -12 -10 3
-10 10 0 15 -4 12 -10 -3 -5 1 -10 9 -10 9 0 16 -6 16 -12 0 -9 4 -8 10 2 7
11 10 11 10 2 0 -8 5 -10 13 -6 8 5 8 2 -2 -9 -8 -10 -9 -17 -3 -17 6 0 14 5
17 10 3 6 13 10 21 10 8 0 12 -5 9 -10 -4 -6 -10 -8 -14 -6 -4 3 -8 -1 -8 -8
0 -8 6 -12 13 -9 6 2 15 0 19 -6 3 -6 12 -11 18 -11 8 0 8 3 -2 9 -10 6 -10
10 -1 16 7 4 13 -1 17 -14 5 -18 8 -19 21 -9 9 7 13 8 10 3 -4 -6 -3 -17 3
-25 5 -8 9 -10 9 -4 0 6 10 11 23 10 12 -1 21 -7 19 -14 -1 -8 5 -12 15 -10
12 2 17 -3 15 -13 -1 -9 4 -19 12 -22 11 -4 14 0 11 16 -4 22 -4 22 11 2 9
-11 20 -19 26 -17 7 2 6 -4 -2 -13 -11 -14 -11 -16 1 -13 8 2 16 6 19 9 9 11
50 -10 50 -26 0 -8 5 -15 11 -15 5 0 8 3 6 8 -3 4 8 7 23 7 16 1 28 -2 28 -5
-2 -27 2 -32 19 -19 15 12 16 12 11 -3 -8 -19 12 -30 33 -18 7 5 18 5 24 1 13
-11 65 -20 65 -12 0 4 9 7 21 7 14 0 19 -5 16 -18 -7 -25 2 -22 13 5 5 14 9
16 9 6 1 -9 8 -16 16 -16 8 0 12 4 9 8 -2 4 0 10 6 14 5 3 10 -1 10 -9 0 -8 4
-18 10 -21 6 -3 7 1 4 9 -3 9 -1 16 5 16 6 0 11 -5 11 -11 0 -6 7 -8 16 -5 8
3 12 2 9 -4 -3 -6 -1 -10 5 -10 6 0 8 -5 4 -12 -5 -9 -2 -8 9 1 10 8 20 11 24
7 3 -3 0 -6 -7 -6 -17 0 -4 -13 16 -16 9 -1 13 3 11 10 -3 7 1 13 9 13 7 0 10
-5 7 -11 -4 -6 1 -5 10 3 9 7 17 10 17 5 0 -5 5 -2 10 6 8 12 10 11 10 -7 0
-17 5 -22 21 -20 11 2 25 10 30 18 7 11 9 10 9 -6 0 -17 2 -17 10 -5 8 13 10
12 10 -2 0 -10 5 -18 11 -18 5 0 8 4 5 8 -6 10 25 9 42 -2 6 -4 16 -5 21 -2 5
4 11 2 13 -4 4 -12 58 -14 123 -5 28 4 57 7 65 7 8 0 20 5 27 10 9 7 11 4 8
-9 -2 -12 2 -20 10 -20 8 0 13 5 12 10 -1 5 8 11 21 13 16 3 21 0 16 -8 -6
-10 -4 -11 7 0 15 14 33 16 25 3 -7 -10 13 -9 31 2 6 4 14 3 18 -3 9 -15 36
-12 59 7 13 11 16 12 9 3 -9 -12 -7 -15 15 -14 32 2 65 14 74 28 4 6 12 5 21
-3 17 -13 33 1 22 19 -3 6 -4 10 0 10 3 0 10 -10 15 -22 6 -17 9 -18 9 -6 1
24 30 38 58 27 13 -5 23 -5 23 -1 0 4 9 8 20 9 11 1 18 -2 16 -6 -3 -5 6 -6
19 -3 14 2 23 8 20 12 -2 4 7 6 20 4 14 -1 23 1 20 6 -5 7 42 25 58 22 4 -1 7
2 7 6 0 4 12 9 27 10 15 1 30 8 35 15 6 9 8 9 8 -2 0 -8 6 -11 18 -6 9 4 23 8
30 9 8 1 17 7 20 13 4 5 13 12 21 14 9 3 4 14 -18 38 -17 18 -35 30 -41 26 -5
-3 -10 -1 -10 5 0 7 -7 9 -16 6 -8 -3 -13 -2 -10 3 5 8 -12 16 -52 26 -6 2
-10 -1 -6 -6 3 -5 10 -6 16 -3 7 5 8 2 4 -5 -6 -9 -12 -9 -25 3 -14 13 -20 13
-30 3 -10 -9 -11 -8 -6 6 7 16 -9 22 -62 20 -7 -1 -10 3 -7 8 3 5 -5 9 -18 9
-13 0 -31 7 -41 15 -11 7 -26 11 -35 8 -9 -4 -13 -2 -9 4 8 12 -48 37 -74 34
-9 -1 -19 5 -22 13 -4 9 -13 13 -20 10 -8 -3 -17 2 -21 11 -3 9 -10 14 -15 11
-5 -3 -14 1 -21 9 -7 8 -17 12 -23 8 -6 -4 -8 0 -4 10 3 9 0 18 -9 21 -8 3
-13 2 -10 -3 4 -5 -3 -7 -13 -4 -12 3 -17 11 -14 19 3 10 -3 14 -20 14 -14 0
-27 7 -30 14 -4 11 -1 13 11 9 16 -6 16 -5 -1 14 -9 11 -14 23 -10 28 5 4 2 5
-5 1 -7 -4 -9 -12 -6 -18 5 -7 2 -8 -5 -4 -7 5 -10 15 -6 23 5 14 3 14 -12 2
-15 -12 -16 -12 -10 4 4 11 3 16 -3 12 -6 -3 -10 -1 -10 5 0 6 -4 8 -10 5 -5
-3 -10 1 -10 9 0 8 -5 18 -12 22 -7 4 -8 3 -4 -4 5 -8 2 -10 -8 -6 -18 7 -22
24 -6 24 6 0 10 4 10 9 0 5 -8 8 -17 7 -10 -2 -23 3 -30 10 -7 7 -17 14 -23
16 -6 2 -12 10 -14 18 -9 44 -26 69 -43 64 -15 -5 -16 -4 -3 5 13 9 11 15 -14
38 -16 15 -25 22 -21 14 5 -9 4 -12 -3 -7 -7 4 -12 14 -12 22 0 8 -6 14 -12
14 -9 0 -8 4 2 10 12 8 10 10 -10 10 -14 0 -20 4 -15 8 13 9 18 35 5 27 -5 -3
-10 -1 -10 5 0 6 -4 8 -10 5 -6 -3 -7 1 -4 9 4 10 1 16 -9 16 -10 0 -14 8 -12
25 1 14 0 23 -3 20 -7 -7 -33 45 -27 55 3 4 -2 11 -11 14 -10 4 -13 2 -8 -7 4
-6 3 -8 -1 -4 -12 10 -15 38 -4 31 5 -3 9 2 9 10 0 9 -4 16 -10 16 -5 0 -10 6
-10 14 0 8 -11 17 -25 20 -27 7 -41 42 -32 77 3 12 0 22 -9 26 -8 3 -14 10
-14 15 0 6 7 8 15 4 12 -4 13 -2 6 13 -6 10 -7 22 -3 26 4 5 1 5 -6 1 -7 -4
-9 -13 -6 -19 5 -9 3 -9 -6 0 -11 10 -11 15 0 28 10 12 10 15 -4 15 -9 0 -16
8 -16 19 0 11 -3 21 -7 24 -5 2 -2 2 5 0 8 -1 12 3 9 9 -2 7 -10 12 -16 10 -6
-1 -10 4 -9 10 2 7 -3 12 -10 10 -11 -2 -13 7 -9 38 2 22 0 40 -4 40 -5 0 -9
7 -9 16 0 8 4 13 9 10 5 -4 7 3 4 14 -3 11 -9 17 -14 14 -14 -8 -11 20 3 34
10 10 10 17 -1 34 -10 16 -10 22 -1 28 9 6 9 9 -1 13 -10 4 -10 6 -1 6 6 1 12
6 12 12 0 6 -7 8 -16 5 -8 -3 -12 -2 -9 4 3 6 14 10 23 10 15 0 15 2 2 10 -9
6 -10 10 -3 10 16 0 10 50 -7 60 -11 7 -12 14 -2 35 7 15 8 24 2 20 -5 -3 -10
-1 -10 4 0 6 5 11 10 11 6 0 10 8 10 18 0 14 -2 15 -10 2 -5 -8 -10 -10 -10
-4 0 5 5 15 12 22 9 9 9 12 -1 12 -7 0 -9 5 -6 10 3 6 0 10 -7 10 -8 0 -9 3
-3 8 14 10 19 46 6 37 -8 -4 -8 1 -2 17 4 13 6 29 4 36 -3 7 1 19 7 27 10 12
10 15 -1 15 -8 0 -7 4 5 13 20 15 12 47 -13 47 -14 0 -14 2 -1 10 8 5 11 10 6
10 -5 0 -3 7 4 15 6 8 8 20 4 26 -5 8 -3 9 6 4 10 -6 12 -4 7 10 -4 9 -2 24 4
31 9 11 8 14 -3 14 -15 0 -19 40 -5 51 4 3 9 16 10 27 1 12 5 22 10 22 5 0 7
7 3 15 -3 8 -1 15 5 15 6 0 10 10 9 23 -1 12 -1 25 0 30 1 4 3 10 5 15 1 4 4
14 8 22 13 34 13 46 -1 59 -10 10 -11 16 -3 19 6 2 9 8 5 13 -3 5 -1 9 4 9 12
0 11 32 -2 50 -10 13 -9 13 8 0 18 -14 19 -13 13 4 -5 13 -3 17 7 13 10 -4 13
-1 9 8 -3 8 -10 12 -17 8 -6 -4 -5 1 3 10 7 9 11 17 7 17 -4 0 0 10 7 23 8 12
13 34 12 49 -1 15 3 26 9 25 6 -1 10 3 9 10 -2 8 4 10 14 6 13 -5 15 -2 10 11
-4 10 -3 15 3 11 6 -3 10 -1 10 4 0 6 -4 11 -9 11 -5 0 -7 9 -4 20 3 11 9 18
13 15 4 -3 7 3 6 13 0 9 4 16 11 15 7 -2 10 3 7 11 -3 7 2 16 10 19 9 4 16 14
16 22 0 9 -5 13 -10 10 -6 -4 -7 -11 -4 -17 5 -7 2 -8 -5 -4 -9 6 -9 12 3 25
9 10 13 21 9 26 -5 4 -3 5 3 2 6 -4 21 5 34 18 l23 24 -24 -4 -24 -4 21 17
c21 16 41 68 23 56 -12 -7 -11 7 1 26 8 12 10 13 10 1 0 -11 5 -10 19 5 10 10
19 21 19 24 0 3 1 7 2 10 1 3 3 12 5 20 2 8 7 26 11 39 6 19 4 22 -7 16 -12
-8 -12 -6 0 8 7 9 17 14 22 12 4 -3 6 3 4 14 -2 11 5 27 16 37 15 14 17 20 6
32 -8 11 -8 14 0 9 7 -4 21 6 34 25 13 17 18 29 12 25 -6 -4 -13 -1 -16 7 -4
10 0 12 16 8 18 -4 20 -3 11 9 -9 11 -9 17 2 27 7 7 16 11 18 10 2 -2 8 0 12
5 4 4 1 7 -6 7 -10 0 -11 3 -3 11 6 6 9 18 6 25 -4 10 0 12 11 8 18 -7 19 15
1 28 -6 5 -3 8 7 8 12 0 16 6 13 20 -3 13 0 18 7 14 8 -5 9 -1 5 10 -6 14 -3
17 9 12 12 -4 15 -2 11 9 -4 8 -2 17 4 21 6 3 8 13 5 21 -4 11 -2 13 9 9 8 -3
15 -2 16 2 5 43 4 50 -3 46 -4 -3 -8 0 -8 5 0 6 8 11 18 12 10 0 12 3 5 6 -10
3 -9 8 3 20 8 9 13 21 10 29 -3 7 2 18 10 24 9 8 14 9 14 2 0 -6 -6 -13 -12
-15 -7 -3 -3 -6 9 -6 16 -1 21 -6 17 -16 -4 -8 -1 -22 5 -29 9 -11 9 -15 0
-18 -8 -3 -9 -9 -4 -18 12 -20 15 -100 3 -100 -5 0 -6 6 -2 13 4 6 3 8 -1 4
-5 -4 -10 -15 -11 -23 -2 -11 3 -14 18 -11 11 3 17 3 14 0 -3 -4 0 -13 7 -22
11 -14 10 -14 -6 -2 -15 12 -17 12 -11 -3 3 -9 14 -16 23 -17 9 0 11 -3 4 -5
-16 -7 -5 -34 13 -34 17 0 19 -27 2 -33 -10 -4 -10 -6 -1 -6 22 -2 53 -35 53
-56 0 -11 8 -32 17 -45 10 -14 17 -27 16 -30 -1 -3 5 -4 12 -2 10 2 13 -3 8
-13 -4 -11 -1 -16 8 -15 31 5 40 -1 37 -22 -2 -12 3 -23 12 -25 13 -4 13 -3 0
6 -8 6 -10 11 -5 11 14 0 45 -37 38 -44 -6 -6 16 -10 45 -9 6 1 12 -5 12 -12
0 -7 7 -16 16 -19 9 -3 12 -11 8 -18 -5 -9 -2 -8 10 1 9 8 16 10 15 5 -4 -21
2 -26 16 -14 12 10 15 9 15 -5 0 -15 2 -16 17 -4 14 12 15 12 9 0 -7 -10 -3
-12 13 -6 11 3 21 2 21 -3 0 -5 11 -12 25 -14 13 -3 22 -1 19 3 -8 14 31 10
44 -3 10 -10 15 -10 22 2 5 8 10 10 10 5 0 -6 -5 -16 -12 -23 -7 -7 -9 -12 -6
-12 4 0 14 7 23 17 21 21 75 26 75 7 0 -8 5 -13 12 -12 8 2 12 -10 13 -31 0
-19 6 -36 13 -38 6 -3 12 -9 12 -14 0 -6 -4 -7 -10 -4 -5 3 -10 1 -10 -4 0 -6
5 -11 11 -11 5 0 8 -4 5 -9 -4 -5 6 -19 21 -31 16 -12 22 -19 16 -15 -7 3 -13
1 -13 -4 0 -6 7 -11 15 -11 8 0 15 -7 15 -16 0 -8 5 -12 10 -9 5 3 10 1 10 -5
0 -6 4 -8 10 -5 6 3 7 -1 4 -9 -4 -11 0 -16 12 -16 16 0 17 -2 4 -10 -10 -7
-11 -10 -2 -11 27 -3 31 -4 39 -12 4 -5 2 -7 -6 -5 -7 1 -16 -3 -19 -11 -3 -9
0 -11 8 -6 9 6 12 4 8 -7 -4 -8 0 -15 8 -15 7 0 10 5 7 11 -4 6 0 5 9 -2 9 -7
22 -11 29 -10 8 2 13 -4 11 -12 -2 -8 0 -12 4 -8 4 4 13 3 21 -3 9 -9 13 -8
13 0 0 6 -4 11 -10 11 -5 0 -10 5 -10 12 0 6 8 3 20 -7 11 -10 17 -23 13 -29
-4 -6 2 -4 12 4 10 8 16 10 12 4 -8 -14 39 -48 53 -39 6 3 10 1 10 -4 0 -6 5
-11 11 -11 5 0 7 4 4 10 -3 6 1 7 9 4 9 -3 13 -11 9 -17 -4 -6 -1 -7 7 -2 7 4
16 2 21 -6 5 -8 9 -9 9 -4 0 12 39 13 57 2 6 -4 14 -1 16 5 4 8 6 7 6 -3 1
-20 28 -33 37 -18 4 6 11 6 21 -2 9 -8 17 -9 21 -3 4 5 18 11 32 12 24 4 34
13 30 28 -1 4 2 10 8 13 5 3 1 19 -9 36 -11 17 -19 23 -19 15 0 -11 -2 -12 -8
-3 -5 7 -20 14 -34 15 -15 1 -25 5 -22 9 11 18 -28 38 -66 34 -22 -2 -38 0
-35 5 3 4 -2 11 -11 14 -8 3 -12 2 -9 -4 3 -6 -1 -7 -9 -4 -9 3 -16 10 -16 15
0 5 -8 8 -17 7 -38 -3 -64 2 -58 12 3 5 0 7 -8 4 -10 -3 -17 4 -21 20 -4 17
-13 26 -27 26 -12 0 -27 12 -37 30 -9 16 -23 32 -30 35 -7 3 -10 0 -7 -5 3 -6
1 -10 -4 -10 -6 0 -11 5 -11 11 0 5 -5 7 -10 4 -5 -3 -10 1 -10 9 0 8 -9 21
-21 29 -14 11 -17 16 -7 19 10 4 9 13 -6 40 -13 24 -25 34 -35 31 -13 -4 -13
-3 -2 5 8 6 10 15 6 22 -5 9 -4 11 3 6 7 -4 12 -2 12 3 0 6 -4 11 -9 11 -4 0
-7 11 -6 25 2 14 -1 23 -6 19 -9 -5 -13 10 -9 31 1 5 -1 7 -5 3 -8 -8 -35 14
-29 24 2 4 -1 10 -7 14 -8 5 -9 3 -4 -6 6 -10 4 -12 -9 -7 -10 4 -20 7 -22 7
-3 0 -2 4 1 10 3 6 -1 7 -9 4 -9 -3 -13 -10 -10 -15 3 -5 -7 -9 -21 -9 -14 0
-24 4 -21 8 8 13 -32 8 -45 -5 -6 -6 -18 -9 -26 -6 -12 5 -12 7 -1 14 10 7 9
9 -4 9 -10 0 -18 6 -18 13 0 7 -3 8 -8 2 -8 -11 -32 -13 -48 -3 -6 4 -21 6
-33 3 -11 -2 -21 1 -21 6 0 6 -5 7 -12 3 -6 -4 -8 -3 -5 2 9 15 -7 34 -31 39
-39 7 -62 24 -55 42 4 10 2 14 -4 10 -6 -4 -10 1 -9 11 0 9 -5 16 -11 14 -12
-2 -18 18 -14 41 1 5 -3 6 -9 2 -6 -3 -10 4 -11 17 0 13 -3 17 -6 11 -2 -7 -9
-13 -15 -13 -6 0 -8 6 -5 14 3 7 0 19 -6 25 -6 6 -7 11 -2 11 5 0 0 7 -11 16
-10 8 -14 13 -8 10 6 -3 11 1 11 9 0 18 -9 19 -24 4 -9 -9 -10 -6 -6 11 4 17
3 21 -6 16 -9 -6 -9 -2 1 14 11 19 11 23 0 27 -10 4 -9 8 4 17 12 9 14 15 6
20 -7 4 -12 2 -12 -3 0 -6 -5 -11 -10 -11 -6 0 -3 11 5 24 9 14 12 25 6 28 -5
1 -12 15 -15 30 -2 15 -7 32 -11 38 -3 5 -1 10 5 10 7 0 5 7 -4 16 -18 17 -21
28 -7 19 5 -3 9 8 9 24 -1 19 -5 28 -12 24 -6 -4 -6 -1 1 8 7 8 10 25 6 37 -4
19 -2 21 13 15 16 -6 17 -4 7 8 -9 11 -9 19 -2 26 11 11 2 46 -10 38 -13 -7
-9 29 4 45 7 8 18 26 25 38 11 22 10 23 -12 17 -19 -7 -21 -6 -11 7 7 8 9 19
5 24 -4 4 0 3 8 -3 13 -10 16 -7 18 15 1 15 7 29 13 30 6 3 6 8 -1 17 -8 10
-8 19 0 35 6 12 13 31 15 42 3 11 11 25 18 32 18 13 29 56 15 56 -5 0 -6 5 -3
10 4 6 11 7 17 4 7 -5 9 -1 5 9 -3 10 -2 17 3 17 6 0 10 5 10 11 0 5 -6 7 -12
3 -7 -5 -3 5 10 20 12 16 19 33 15 40 -3 6 -3 8 2 4 14 -13 34 25 24 44 -6 12
-6 18 1 18 5 0 10 7 10 16 0 8 5 12 10 9 13 -8 13 1 0 25 -7 14 -6 17 8 16 12
-1 17 7 18 26 1 15 7 34 14 43 7 8 9 15 5 15 -4 0 -2 7 5 15 7 8 10 20 7 27
-5 15 18 40 28 30 4 -4 5 -2 4 3 -2 6 3 21 10 34 9 16 9 21 1 16 -7 -5 -7 0 2
14 11 18 11 23 -2 31 -13 8 -12 10 4 10 16 0 17 2 5 18 -7 9 -9 14 -5 10 13
-11 36 11 29 28 -3 8 0 14 6 14 6 0 11 12 11 26 0 14 4 23 8 20 4 -2 9 10 10
27 2 42 6 59 17 77 5 8 8 27 7 42 -2 22 2 28 18 28 11 0 20 5 20 11 0 6 -6 9
-14 6 -11 -5 -12 0 -3 23 7 20 14 25 19 17 5 -9 10 -9 20 2 10 10 10 12 1 7
-9 -5 -13 1 -13 18 0 16 6 26 15 26 8 0 15 5 15 11 0 5 -4 7 -10 4 -5 -3 -10
-1 -10 4 0 6 5 11 11 11 8 0 7 5 -1 15 -11 13 -10 14 5 9 15 -6 17 -4 12 16
-3 13 -1 31 6 39 10 12 9 13 -3 6 -8 -4 -5 2 8 14 24 24 31 41 8 22 -11 -9
-16 -9 -22 1 -4 7 -4 10 1 6 11 -10 32 14 32 37 -1 74 3 97 19 91 8 -3 12 -2
9 3 -3 5 -1 12 4 15 11 7 9 25 -3 45 -6 10 -5 12 2 7 16 -9 15 7 0 22 -9 9 -9
12 3 12 12 0 12 2 -1 10 -10 6 -11 10 -2 10 6 0 11 3 11 8 -3 20 2 32 13 26 7
-5 8 -3 3 7 -12 19 -14 49 -3 49 5 0 8 8 5 18 -2 9 3 29 10 44 7 16 11 40 7
55 -4 22 -3 25 5 13 6 -8 11 -10 11 -4 0 5 -4 14 -9 20 -6 5 -6 25 0 53 5 24
8 50 5 56 -2 7 0 18 4 25 5 8 6 18 3 24 -13 20 -11 66 3 66 15 0 10 46 -8 67
-7 9 -7 13 1 13 6 0 11 10 11 21 0 19 -2 20 -16 8 -15 -12 -15 -10 -2 21 8 19
13 41 10 49 -2 8 0 11 5 8 5 -3 9 3 9 13 0 12 -5 16 -16 12 -13 -5 -13 -3 -1
11 9 12 10 17 2 17 -7 0 -9 5 -6 11 4 5 -1 20 -12 31 -10 12 -13 18 -7 15 18
-10 24 31 7 48 -8 8 -10 15 -4 15 6 0 11 11 11 25 0 23 -10 30 -33 26 -5 -1
-6 3 -2 9 14 22 14 71 0 76 -7 3 -16 11 -18 18 -4 9 3 11 21 8 16 -3 23 -1 19
4 -5 5 -14 9 -20 9 -7 0 -12 5 -12 12 0 6 -3 14 -7 18 -4 4 -4 13 -1 21 3 8 0
14 -7 14 -6 0 -8 5 -5 10 4 6 10 8 14 6 4 -3 7 9 6 25 0 16 -4 29 -9 29 -4 0
-6 -9 -3 -20 3 -11 1 -17 -4 -14 -6 3 -8 19 -5 35 2 16 0 31 -5 35 -5 3 -7 10
-4 15 4 5 -1 9 -9 9 -9 0 -16 5 -16 11 0 5 5 7 11 4 6 -4 5 2 -3 14 -7 12 -20
21 -28 22 -10 0 -11 2 -2 6 6 2 12 9 12 14 0 6 -4 7 -10 4 -5 -3 -10 -1 -10 4
0 6 6 11 13 11 7 0 4 7 -7 15 -11 8 -14 15 -8 15 19 0 14 21 -10 48 -13 14
-17 22 -10 18 6 -4 12 -3 12 2 0 6 -11 13 -25 16 -23 6 -24 8 -10 22 19 19 19
20 -4 41 -11 10 -21 29 -23 43 -2 14 -9 24 -16 22 -8 -1 -11 2 -7 8 3 5 0 10
-7 10 -8 0 -9 3 -3 8 12 8 12 15 1 55 -5 15 -12 27 -17 27 -5 0 -9 7 -9 15 0
8 -4 15 -10 15 -5 0 -10 7 -10 16 0 8 -4 13 -9 9 -6 -3 -8 4 -6 15 2 12 -4 29
-15 40 -24 24 -25 31 -4 23 11 -4 8 3 -7 19 -13 13 -27 23 -32 21 -4 -3 -12 8
-17 24 -16 42 -34 77 -45 86 -6 4 -4 11 5 17 13 8 13 10 -2 10 -11 0 -15 6
-11 20 3 11 0 20 -6 20 -6 0 -11 8 -11 19 0 10 -8 25 -17 32 -14 12 -16 12 -8
0 5 -9 4 -12 -3 -8 -5 4 -9 18 -7 32 1 14 -2 28 -8 32 -6 4 -7 1 -2 -7 5 -9 4
-11 -4 -6 -9 6 -9 11 1 24 11 13 11 14 -2 10 -19 -6 -44 18 -34 34 5 8 2 9
-12 4 -14 -5 -16 -4 -8 4 13 13 7 50 -7 50 -5 0 -9 6 -9 14 0 8 -7 17 -16 20
-8 3 -13 10 -9 15 3 5 1 12 -5 16 -5 3 -10 1 -10 -6 0 -7 -3 -9 -7 -5 -8 7 -9
11 -12 37 0 5 -5 8 -10 5 -5 -3 -12 1 -15 10 -3 8 -10 13 -15 10 -5 -3 -7 4
-3 16 4 17 2 20 -12 15 -10 -4 -15 -3 -11 3 3 6 1 10 -6 10 -8 0 -7 5 2 17 10
11 10 14 2 9 -8 -4 -13 -2 -13 4 0 6 -4 9 -9 6 -5 -4 -7 3 -4 13 3 12 11 17
19 14 8 -3 12 -9 9 -13 -3 -4 2 -11 11 -14 8 -3 13 -2 10 3 -4 5 3 7 14 4 11
-3 18 -8 16 -12 -2 -3 3 -13 12 -21 14 -13 15 -12 9 3 -6 16 -4 16 17 2 12 -8
26 -12 29 -8 4 3 7 -2 7 -13 0 -16 2 -17 10 -4 6 10 10 11 10 3 0 -7 6 -13 13
-13 16 0 48 -27 63 -55 6 -11 17 -20 25 -20 17 0 47 -26 45 -40 -1 -5 8 -9 19
-10 14 0 19 -6 17 -19 -3 -18 -2 -18 14 -5 10 7 15 10 12 4 -7 -12 17 -37 26
-28 3 4 6 1 6 -4 0 -6 -6 -14 -12 -16 -12 -5 27 -11 46 -8 5 1 6 -6 2 -15 -6
-15 -4 -15 11 -3 15 13 16 12 11 -9 -4 -12 -2 -20 3 -16 5 3 9 -2 9 -12 0 -14
3 -14 16 -4 8 8 14 9 13 4 -4 -21 2 -35 11 -29 6 3 10 -1 10 -9 0 -9 3 -15 8
-14 14 3 42 -14 36 -23 -3 -5 5 -9 16 -9 16 0 20 -4 16 -16 -4 -10 -2 -13 6
-8 8 5 9 2 5 -10 -6 -14 -3 -17 9 -12 11 4 18 -1 21 -14 3 -11 10 -20 15 -20
5 0 6 -4 3 -10 -4 -6 1 -7 11 -3 12 4 15 3 10 -5 -4 -7 -3 -12 2 -12 5 0 8
-11 7 -24 -2 -14 3 -27 11 -30 10 -4 13 -1 8 7 -4 6 2 4 12 -6 10 -9 26 -40
35 -69 9 -29 21 -54 27 -56 8 -2 10 3 5 14 -6 15 -4 15 13 -2 27 -28 44 -70
33 -81 -6 -6 -3 -9 8 -9 10 1 18 -2 18 -5 0 -3 7 -14 15 -24 9 -11 10 -16 3
-11 -7 4 -13 3 -13 -2 0 -11 37 -23 43 -13 2 3 2 0 1 -6 -2 -7 6 -17 17 -23
11 -6 17 -15 14 -20 -3 -4 2 -15 10 -24 9 -9 11 -17 5 -21 -5 -3 -10 -12 -9
-18 0 -9 2 -9 6 1 2 6 9 12 14 12 4 0 5 -7 2 -17 -5 -12 -3 -14 7 -8 10 6 12
3 8 -13 -4 -12 -2 -20 3 -16 8 5 14 -18 10 -40 -1 -5 6 -6 15 -2 14 5 15 4 4
-9 -8 -10 -9 -15 -1 -15 6 0 11 -7 11 -16 0 -11 6 -14 23 -9 17 5 19 4 7 -4
-11 -8 -12 -11 -2 -11 7 0 10 -4 7 -10 -3 -5 -1 -10 5 -10 6 0 9 -3 7 -7 -8
-13 12 -55 23 -48 6 4 7 -1 3 -11 -4 -11 -3 -15 4 -11 7 4 9 0 7 -11 -4 -14 1
-17 30 -16 20 1 39 -2 42 -7 9 -15 26 -10 20 6 -4 13 -2 14 14 5 11 -6 20 -7
19 -3 -4 22 2 44 10 39 5 -3 11 1 15 9 3 8 1 17 -5 20 -5 4 -6 11 -2 18 10 17
11 109 2 129 -6 11 -5 19 3 24 7 4 8 3 4 -4 -4 -7 -2 -12 3 -12 13 0 14 13 4
24 -4 4 -8 38 -8 76 -1 54 2 70 14 75 13 5 14 7 1 15 -13 9 -13 10 0 10 11 1
10 4 -4 15 -14 10 -15 15 -6 15 11 0 11 3 2 12 -7 7 -8 17 -1 30 6 12 6 18 -1
18 -5 0 -10 5 -10 11 0 5 4 7 10 4 6 -3 7 1 4 9 -3 9 -9 14 -13 12 -4 -3 -7 6
-7 20 0 13 3 24 6 24 4 0 5 15 4 33 -1 17 -3 32 -4 32 -2 0 -3 23 -4 50 -1 28
-5 56 -9 62 -5 9 -3 11 6 7 9 -3 16 2 19 14 3 11 0 19 -8 19 -7 0 -10 -5 -7
-10 3 -6 1 -7 -5 -3 -9 5 -9 13 -2 26 6 12 6 27 1 42 -6 13 -10 17 -10 9 -1
-8 -4 -12 -7 -9 -3 4 -1 15 5 27 7 13 8 22 1 26 -5 3 -10 1 -10 -5 0 -6 -4 -9
-10 -5 -14 9 0 34 16 28 8 -3 14 0 14 6 0 6 -5 11 -10 11 -6 0 -9 6 -8 13 2 6
-2 11 -8 10 -18 -3 -12 96 6 107 8 5 10 10 4 10 -5 0 -19 7 -30 16 -10 8 -14
13 -8 10 7 -3 14 1 18 9 3 8 2 14 -2 14 -4 -1 -14 -1 -22 1 -11 1 -9 4 5 10
18 8 18 9 -5 10 -14 1 -19 4 -12 7 10 4 10 8 0 21 -9 10 -9 13 -1 9 8 -5 11
-1 10 12 0 11 -5 17 -11 14 -5 -4 -7 1 -3 11 4 9 0 30 -8 45 -10 20 -11 31 -3
39 8 8 6 15 -6 27 -17 17 -22 30 -8 21 5 -3 9 1 9 9 0 8 -4 12 -8 10 -4 -3
-10 2 -13 11 -4 10 -2 13 6 8 8 -5 9 -2 5 9 -3 10 -3 17 1 17 4 0 8 9 8 21 0
19 -1 19 -14 2 -12 -16 -13 -16 -7 8 4 17 1 30 -9 38 -9 8 -16 21 -16 30 0 9
-9 22 -20 29 -21 13 -18 37 4 29 6 -3 12 4 12 14 0 11 -4 15 -11 10 -18 -14
-41 -8 -41 11 0 11 5 17 13 13 9 -3 7 4 -4 20 -10 13 -21 25 -25 25 -5 0 -8 5
-8 11 0 5 4 8 8 5 4 -2 9 6 10 20 1 13 -3 24 -8 24 -5 0 -7 -8 -4 -17 5 -16 4
-16 -6 0 -9 14 -9 22 1 33 9 11 8 18 -6 34 -9 10 -22 17 -28 16 -7 -2 -9 -1
-5 1 3 2 0 19 -8 38 -10 26 -11 34 -1 38 9 3 9 8 -2 18 -12 12 -13 12 -6 0 6
-10 4 -12 -4 -7 -7 5 -10 14 -7 22 3 8 1 14 -5 14 -6 0 -7 5 -4 10 3 6 1 10
-4 10 -6 0 -11 8 -11 18 0 15 2 15 11 2 9 -12 10 -12 7 -1 -6 22 -28 25 -28 4
-1 -15 -3 -15 -13 5 -7 12 -15 20 -18 18 -3 -3 -5 4 -6 15 -1 12 3 17 10 13 7
-3 1 4 -13 16 -14 12 -19 19 -12 15 11 -6 12 -3 3 13 -6 12 -17 19 -25 16 -7
-3 -16 2 -20 11 -4 11 -2 14 7 9 6 -4 -3 8 -21 26 -21 23 -29 37 -22 44 5 5
10 15 10 21 0 5 -5 3 -10 -5 -8 -12 -10 -12 -10 5 0 11 -7 29 -15 39 -8 10
-12 23 -9 27 3 5 0 9 -6 9 -6 0 -8 5 -4 12 4 7 3 8 -4 4 -6 -4 -9 -13 -5 -21
3 -8 1 -15 -5 -15 -15 0 -9 40 8 50 12 8 12 10 1 10 -8 0 -20 -8 -27 -17 -13
-17 -13 -17 -14 0 0 9 -6 17 -12 17 -7 1 -2 7 11 14 20 11 21 14 7 19 -10 4
-15 3 -11 -3 3 -6 1 -10 -4 -10 -6 0 -11 5 -11 11 0 5 -5 7 -10 4 -5 -3 -10 1
-10 10 0 10 -5 13 -12 9 -7 -5 -8 -3 -2 7 14 23 13 37 -3 43 -8 3 -11 11 -8
16 4 6 1 9 -7 8 -7 -2 -12 3 -10 10 1 6 -2 12 -8 12 -5 0 -10 9 -10 20 0 11
-5 20 -11 20 -5 0 -7 -4 -4 -10 3 -5 0 -7 -9 -4 -8 3 -13 14 -11 26 3 13 0 18
-9 15 -10 -4 -13 3 -12 25 2 24 0 27 -9 15 -8 -11 -16 -13 -26 -6 -10 6 -10 9
-1 9 6 0 12 5 12 11 0 5 -4 7 -10 4 -5 -3 -10 1 -10 9 0 9 -3 16 -8 16 -4 0
-14 15 -21 33 -17 37 -36 59 -45 50 -3 -4 -6 -1 -6 6 0 7 -4 9 -10 6 -5 -3
-10 -1 -10 4 0 6 -7 11 -16 11 -8 0 -12 5 -9 10 3 6 1 10 -6 10 -7 0 -10 3 -6
6 3 4 -1 13 -9 21 -8 8 -11 19 -8 25 4 6 -1 6 -14 -1 -16 -8 -21 -7 -26 5 -3
8 -2 12 4 9 6 -3 10 -1 10 4 0 6 -7 11 -16 11 -8 0 -12 5 -9 10 6 9 -8 14 -28
11 -4 0 -6 5 -5 11 2 7 -2 12 -8 11 -7 -1 -10 5 -7 15 2 11 -4 21 -19 27 -13
6 -22 16 -20 23 1 7 -3 12 -9 12 -5 0 -7 5 -4 10 3 6 1 10 -5 10 -6 0 -10 6
-8 14 4 17 -48 64 -79 72 -13 4 -23 10 -23 16 0 5 -5 6 -10 3 -6 -4 -9 -1 -8
7 2 7 -3 12 -11 10 -12 -3 -12 0 -1 13 11 13 10 15 -4 9 -18 -7 -46 12 -46 30
0 6 5 4 10 -4 5 -8 10 -10 10 -4 0 6 -8 18 -17 25 -11 10 -14 10 -9 2 4 -7 2
-13 -3 -13 -6 0 -11 7 -11 16 0 10 -6 14 -14 11 -10 -4 -12 1 -9 16 4 18 3 19
-6 7 -9 -12 -11 -10 -11 10 0 14 -4 21 -8 15 -9 -12 -32 -18 -31 -8 3 17 -1
33 -8 32 -20 -3 -24 2 -14 15 10 11 8 16 -9 21 -11 3 -18 10 -15 15 3 5 0 12
-6 16 -8 4 -9 3 -5 -4 4 -7 2 -12 -3 -12 -6 0 -11 5 -11 11 0 5 -5 7 -12 3 -8
-5 -9 -2 -5 9 3 10 2 17 -2 17 -5 0 -12 -6 -14 -12 -3 -7 -6 -3 -6 8 -1 12 -8
27 -16 34 -16 13 -18 9 -16 -25 l1 -20 -9 20 c-5 11 -7 23 -4 28 2 4 -2 7 -9
7 -7 0 -19 9 -26 21 -10 15 -10 19 -1 14 8 -5 10 -4 5 3 -10 16 -33 15 -39 0
-4 -10 -6 -10 -6 0 -1 7 -5 11 -10 7 -5 -3 -13 0 -17 6 -4 8 -3 9 4 5 7 -4 12
-2 12 3 0 6 -9 11 -20 11 -11 0 -20 5 -20 10 0 6 -7 10 -16 10 -8 0 -12 5 -9
10 3 6 -3 11 -14 11 -12 1 -25 3 -31 4 -5 1 -15 3 -21 4 -5 0 -8 5 -5 10 3 4
-4 17 -16 27 -12 11 -18 13 -14 7 4 -7 2 -13 -3 -13 -6 0 -11 5 -11 11 0 5 -4
7 -10 4 -5 -3 -10 -2 -10 4 0 6 -6 8 -14 5 -8 -3 -17 0 -22 7 -4 8 -3 10 4 5
7 -4 12 -5 12 -2 0 3 -10 10 -22 17 -18 10 -20 9 -14 -7 6 -18 5 -18 -8 -1 -9
12 -16 14 -21 8 -3 -6 -11 -11 -16 -11 -6 0 -7 4 -4 10 3 5 -3 20 -14 32 -12
12 -21 18 -21 14 0 -5 -6 -4 -13 2 -7 6 -25 9 -40 8 -20 -2 -25 0 -18 8 14 17
-15 31 -61 31 -21 0 -38 3 -38 7 0 10 -23 6 -31 -6 -4 -5 -10 2 -15 15 l-8 24
-7 -25 -7 -25 -1 24 c-1 21 -3 22 -18 10 -9 -8 -14 -9 -10 -3 3 6 -3 16 -13
24 -10 8 -17 17 -14 22 3 4 -2 5 -10 2 -9 -3 -13 -11 -9 -18 4 -7 1 -7 -9 1
-8 7 -18 10 -22 6 -4 -4 -3 4 3 19 9 25 8 26 -15 22 -19 -3 -24 -1 -18 8 5 10
4 10 -6 1 -8 -7 -20 -9 -35 -3 -13 5 -26 6 -29 3 -3 -4 -6 1 -6 10 0 9 -4 19
-10 22 -5 3 -7 0 -5 -7 4 -9 -2 -14 -14 -14 -15 0 -17 3 -9 13 6 8 8 17 4 20
-4 4 -11 1 -17 -7 -8 -13 -12 -11 -28 8 -20 23 -38 31 -25 11 5 -8 1 -8 -13 0
-11 6 -24 7 -28 3 -5 -4 -5 -1 -1 6 4 7 12 9 18 6 7 -4 8 -2 4 4 -4 7 -16 12
-26 12 -14 0 -18 5 -14 18 5 15 4 15 -6 -1 -11 -17 -13 -17 -37 7 -14 14 -30
26 -35 26 -5 0 -6 5 -2 11 4 8 0 8 -15 0 -16 -9 -21 -9 -21 1 0 9 -3 9 -10 -2
-6 -9 -5 -17 3 -22 6 -4 15 -2 19 5 4 6 10 8 15 4 11 -11 -17 -26 -36 -19 -9
3 -18 8 -21 11 -11 13 -60 30 -60 21 0 -5 -7 -7 -15 -4 -8 4 -13 10 -10 15 3
4 -4 6 -15 4 -11 -2 -18 0 -15 4 2 5 -2 14 -10 21 -10 8 -15 9 -15 1 0 -7 -8
-8 -24 -1 -13 5 -28 6 -32 2 -5 -4 -2 1 5 11 7 9 11 18 7 18 -3 1 -11 2 -16 3
-6 0 -15 8 -20 16 -7 10 -10 11 -10 3 0 -7 -5 -13 -11 -13 -5 0 -8 4 -4 9 3 5
1 12 -5 16 -5 3 -10 2 -10 -4 0 -5 -8 -8 -17 -6 -10 1 -17 8 -15 16 2 9 -1 9
-14 -2 -12 -9 -15 -9 -10 -1 5 8 -2 12 -24 12 -18 0 -29 4 -25 10 3 6 1 10 -6
10 -6 0 -30 19 -52 42 -22 23 -38 34 -34 25 4 -11 2 -14 -8 -10 -8 3 -12 9 -9
14 3 5 -1 9 -8 9 -7 0 -24 3 -37 7 -14 3 -22 2 -18 -3 3 -5 -3 -10 -13 -10
-10 0 -16 4 -14 8 6 9 -31 29 -39 21 -3 -3 -13 2 -22 11 -9 9 -21 14 -26 11
-5 -4 -9 -1 -9 5 0 6 -4 9 -9 6 -5 -3 -13 0 -19 7 -10 12 -12 18 -12 37 0 5
-7 7 -15 4 -11 -5 -13 -2 -8 12 5 13 3 16 -10 11 -9 -3 -17 -2 -17 4 0 6 -6 7
-12 2 -17 -10 -38 -13 -35 -5 3 10 -32 57 -40 54 -4 -2 -9 2 -11 10 -2 9 0 8
8 -2 9 -12 11 -12 8 -1 -2 8 -12 15 -22 17 -10 1 -20 5 -23 8 -4 3 -12 -2 -20
-12 -8 -9 -12 -12 -9 -6 3 7 -1 14 -9 18 -8 3 -15 1 -15 -5 0 -5 -6 -4 -14 3
-8 7 -10 14 -5 16 4 2 3 9 -4 16 -6 8 -17 11 -24 9 -7 -3 -10 3 -6 16 4 16 1
21 -15 21 -12 0 -24 5 -27 10 -5 8 -11 7 -21 -1 -9 -7 -14 -8 -12 -3 2 5 0 9
-3 9 -11 0 -39 28 -39 39 0 6 5 4 11 -4 9 -12 10 -12 5 3 -3 10 -6 19 -6 20 0
1 -18 2 -40 1 -39 -1 -40 0 -22 19 16 20 16 20 -2 14 -13 -5 -17 -3 -13 7 4
10 -1 12 -16 9 -16 -4 -18 -2 -8 5 11 8 9 11 -10 18 -13 4 -27 7 -31 6 -5 -1
-7 1 -7 6 3 19 -2 32 -14 32 -7 0 -23 9 -34 19 -12 11 -23 17 -27 14 -3 -3
-11 7 -17 23 -6 16 -13 23 -16 17 -3 -7 -9 -13 -14 -13 -6 0 -8 4 -5 9 4 5 0
11 -6 14 -10 3 -10 8 2 23 14 18 14 18 -4 4 -17 -13 -21 -12 -51 23 -18 20
-37 37 -44 37 -10 0 -15 13 -12 33 0 4 -3 7 -9 7 -5 0 -6 8 -3 18 6 15 5 16
-12 2 -17 -14 -18 -13 -13 12 3 15 2 25 -2 23 -15 -9 -67 20 -62 34 3 8 0 11
-7 7 -7 -4 -11 0 -11 11 0 10 -9 24 -20 31 -11 7 -20 22 -20 35 0 18 -2 19
-10 7 -7 -10 -12 -12 -17 -4 -5 6 -18 16 -30 23 -15 7 -20 17 -16 28 5 12 3
14 -7 8 -9 -6 -11 -4 -5 5 4 7 2 16 -6 21 -11 7 -11 9 -1 9 7 0 11 4 8 9 -3 5
-16 7 -28 3 -18 -4 -20 -2 -15 17 4 17 2 21 -9 17 -8 -3 -14 1 -14 10 0 8 -4
13 -9 10 -11 -7 -23 22 -16 35 4 5 -1 6 -10 3 -9 -4 -15 -3 -14 2 3 20 -2 34
-12 34 -5 0 -7 -6 -3 -12 4 -8 3 -10 -2 -5 -5 5 -9 14 -9 19 0 6 -6 13 -14 16
-9 3 -11 0 -6 -8 5 -8 4 -11 -3 -6 -6 4 -9 13 -5 21 3 8 0 15 -7 15 -16 0 -34
21 -38 45 -2 11 -8 22 -13 23 -5 2 -16 10 -23 18 -8 8 -17 14 -20 14 -13 0
-55 44 -50 52 3 4 -2 8 -12 8 -14 0 -14 3 -4 15 11 13 10 14 -2 10 -9 -4 -22
1 -31 9 -8 8 -18 12 -22 8 -5 -4 -5 1 -2 10 3 10 1 20 -5 24 -7 5 -8 2 -3 -7
4 -8 -5 0 -20 16 -14 17 -30 30 -35 30 -5 0 -12 4 -17 9 -5 5 -2 6 7 2 9 -5 8
-2 -2 7 -10 8 -15 17 -11 20 3 4 1 7 -6 7 -7 0 -9 4 -6 10 8 14 -13 50 -28 47
-7 -1 -12 7 -11 19 1 11 -5 21 -12 21 -7 0 -11 -4 -8 -9 3 -4 0 -8 -5 -8 -6 0
-11 3 -11 8 0 4 -4 13 -9 21 -8 13 -12 13 -28 1 -10 -8 -14 -10 -10 -5 4 5 -3
15 -15 23 -23 13 -23 13 -1 9 15 -3 20 -1 16 9 -3 8 -13 12 -22 10 -22 -7 -37
4 -44 35 -4 16 -16 29 -29 32 -18 5 -19 8 -8 22 11 14 11 16 -1 13 -8 -2 -13
2 -12 7 1 10 -11 14 -54 17 -7 1 -12 4 -11 7 2 20 -4 30 -22 36 -11 3 -20 10
-20 15 0 5 7 6 17 3 11 -4 14 -3 9 6 -4 6 -16 9 -26 6 -10 -3 -22 0 -26 6 -5
8 -2 10 7 5 8 -4 5 0 -5 8 -12 10 -22 12 -26 6 -3 -6 -16 8 -28 31 -12 22 -20
45 -17 50 3 4 -6 11 -20 15 -14 3 -23 9 -21 12 3 3 -4 10 -17 17 -12 6 -21 18
-19 25 3 11 0 11 -13 0 -9 -7 -15 -9 -14 -4 3 18 -1 34 -8 32 -17 -3 -43 15
-36 25 4 6 0 8 -10 4 -11 -4 -17 -1 -17 8 0 8 -10 20 -22 26 -13 7 -27 18 -33
26 -5 7 -23 14 -38 15 -22 2 -30 9 -34 30 -3 15 -9 25 -14 22 -5 -3 -9 0 -9 6
0 6 -4 9 -8 6 -5 -3 -15 6 -22 20 -10 18 -16 21 -22 12 -5 -9 -8 -5 -8 11 0
24 0 24 -15 5 -10 -12 -14 -14 -13 -4 2 8 -3 15 -9 16 -7 1 -16 2 -19 3 -4 0
-1 7 5 15 15 17 6 23 -37 24 -17 0 -42 4 -55 8 l-22 8 25 7 25 7 -26 1 c-15 1
-33 8 -40 18 -13 15 -12 15 10 4 14 -8 27 -9 32 -4 6 6 5 10 -3 11 -48 4 -70
11 -83 28 -13 17 -14 17 -15 2 0 -10 -5 -18 -11 -18 -5 0 -8 4 -5 9 3 5 -2 15
-11 22 -14 12 -16 12 -8 -1 6 -11 4 -11 -11 2 -10 9 -23 17 -29 17 -5 0 -12 8
-16 18 -5 12 -8 13 -8 4 -1 -11 -7 -9 -23 6 -13 11 -31 19 -41 18 -9 -2 -15 1
-11 6 3 5 10 7 15 4 5 -4 9 -2 9 4 0 5 -12 9 -27 8 -23 -2 -28 2 -25 20 2 12
-2 24 -7 28 -6 3 -9 0 -6 -7 3 -8 -4 -14 -20 -14 -13 -1 -23 3 -22 10 1 6 -4
10 -10 9 -7 -2 -13 1 -13 6 0 5 -11 8 -25 5 -16 -3 -27 1 -31 10 -3 9 -12 12
-21 9 -9 -4 -14 -2 -10 3 3 6 -3 11 -14 11 -10 1 -19 -3 -19 -8 0 -6 -14 -1
-30 11 -18 13 -27 26 -23 33 5 8 2 8 -9 0 -12 -11 -19 -9 -38 7 -12 11 -27 17
-31 14 -5 -3 -9 0 -9 6 0 6 -4 9 -9 5 -5 -3 -12 -1 -15 3 -3 5 -21 8 -41 5
-19 -2 -35 0 -35 5 0 5 -10 8 -22 7 -13 -1 -31 2 -40 7 -12 5 -18 5 -18 -2 0
-5 -5 -10 -11 -10 -5 0 -8 4 -4 9 7 12 -24 29 -47 26 -9 -2 -19 4 -22 12 -5
13 -9 13 -22 2 -12 -10 -15 -10 -12 2 2 8 -7 15 -19 17 -13 2 -23 10 -23 18 0
8 -5 12 -10 9 -6 -4 -8 -11 -5 -16 6 -8 -55 -15 -80 -9 -5 1 -22 3 -37 4 -16
1 -23 5 -18 11 5 6 -4 10 -23 11 -18 1 -41 4 -52 7 -11 3 -24 6 -28 6 -5 1 -5
5 -2 11 3 6 -1 7 -9 4 -9 -3 -16 -11 -16 -16 0 -6 -7 -5 -15 2 -9 7 -18 10
-22 7 -3 -4 -12 -2 -19 4 -8 6 -20 9 -29 6 -8 -4 -17 -2 -20 4 -4 5 -10 7 -15
4 -5 -3 -11 -1 -15 5 -3 5 -1 10 6 10 7 0 9 3 5 7 -4 5 -13 1 -19 -8 -30 -39
-64 -28 -59 21 l2 25 -15 -27 c-17 -31 -28 -37 -18 -12 5 14 3 15 -16 5 -12
-7 -26 -9 -31 -6 -6 3 -10 0 -11 -7 0 -7 -5 0 -11 16 -7 20 -13 24 -18 15 -5
-7 -4 -24 1 -38 l9 -26 -20 25 c-19 25 -20 25 -50 8 -17 -10 -28 -13 -25 -8 3
6 0 10 -8 10 -10 0 -13 7 -10 18 3 12 -2 18 -16 19 -23 2 -28 -11 -9 -23 7 -5
8 -3 3 6 -5 8 -4 11 3 6 18 -11 3 -34 -19 -29 -10 3 -19 9 -19 15 0 5 -10 3
-22 -3 -21 -11 -22 -11 -9 5 11 13 12 19 2 29 -10 9 -11 8 -6 -4z m-25 -33 c0
-3 -4 -8 -10 -11 -5 -3 -10 -1 -10 4 0 6 5 11 10 11 6 0 10 -2 10 -4z m-800
-60 c0 -3 -4 -8 -10 -11 -5 -3 -10 -1 -10 4 0 6 5 11 10 11 6 0 10 -2 10 -4z
m-2290 -1360 c0 -2 -8 -10 -17 -17 -16 -13 -17 -12 -4 4 13 16 21 21 21 13z
m5990 -70 c0 -3 -4 -8 -10 -11 -5 -3 -10 -1 -10 4 0 6 5 11 10 11 6 0 10 -2
10 -4z m-8513 -328 c-3 -8 -6 -5 -6 6 -1 11 2 17 5 13 3 -3 4 -12 1 -19z
m-314 -102 c9 -7 17 -17 17 -21 0 -5 -9 0 -19 9 -11 10 -25 15 -32 10 -8 -4
-10 -3 -5 4 9 15 17 15 39 -2z m-1819 -1934 c3 -5 -1 -9 -9 -9 -8 0 -12 4 -9
9 3 4 7 8 9 8 2 0 6 -4 9 -8z m14293 -84 c-3 -8 -6 -5 -6 6 -1 11 2 17 5 13 3
-3 4 -12 1 -19z m-15642 -998 c3 -5 1 -10 -4 -10 -6 0 -11 5 -11 10 0 6 2 10
4 10 3 0 8 -4 11 -10z m206 -173 c-10 -9 -11 -8 -5 6 3 10 9 15 12 12 3 -3 0
-11 -7 -18z m124 -27 c3 -5 1 -10 -4 -10 -6 0 -11 5 -11 10 0 6 2 10 4 10 3 0
8 -4 11 -10z m466 -253 c-10 -9 -11 -8 -5 6 3 10 9 15 12 12 3 -3 0 -11 -7
-18z m14698 -340 c0 -9 -2 -8 -6 1 -2 6 -10 9 -15 6 -7 -4 -8 -2 -4 5 9 13 26
5 25 -12z m-15005 -62 c3 -8 1 -15 -4 -15 -6 0 -10 7 -10 15 0 8 2 15 4 15 2
0 6 -7 10 -15z m16236 -69 c0 -11 -19 -15 -25 -6 -3 5 1 10 9 10 9 0 16 -2 16
-4z m-16380 -66 c-12 -22 -25 -26 -35 -10 -3 5 0 7 8 4 8 -3 17 2 20 10 4 9 9
16 12 16 3 0 1 -9 -5 -20z m-54 -76 c2 -12 -1 -13 -12 -3 -7 6 -11 16 -8 21 7
11 17 3 20 -18z m15587 -380 c-4 -12 -8 -13 -14 -3 -9 15 -2 32 11 24 5 -3 6
-13 3 -21z m162 -323 c3 -5 0 -13 -6 -17 -7 -4 -9 -3 -5 4 3 5 0 13 -6 15 -9
4 -10 6 -1 6 6 1 14 -3 18 -8z m180 -810 c3 -5 2 -12 -3 -15 -5 -3 -9 1 -9 9
0 17 3 19 12 6z m-17714 -424 c-10 -9 -11 -8 -5 6 3 10 9 15 12 12 3 -3 0 -11
-7 -18z m-167 -327 c-6 -6 -10 -3 -10 10 0 13 4 16 10 10 7 -7 7 -13 0 -20z
m12557 -793 c-6 -6 -18 -12 -26 -13 -11 -2 -13 2 -5 17 6 11 16 16 26 12 11
-4 12 -9 5 -16z m8 -24 c-10 -11 -10 -14 -1 -9 8 5 12 -1 13 -21 1 -15 1 -31
0 -35 0 -5 3 -8 7 -8 16 0 6 -42 -12 -52 -15 -9 -16 -7 -7 9 5 11 9 29 8 40
-1 17 -7 20 -30 17 -25 -3 -27 -1 -16 12 7 8 18 13 26 10 7 -3 13 -2 13 3 0 5
-11 11 -24 13 -17 3 -23 1 -19 -8 3 -9 -3 -11 -19 -8 -21 4 -21 4 -3 -5 11 -5
16 -10 10 -11 -5 0 -2 -7 8 -14 10 -8 14 -17 8 -20 -5 -4 -19 7 -31 24 -19 26
-19 31 -6 36 9 3 13 10 10 15 -3 5 6 9 20 9 14 0 28 5 31 10 3 6 11 10 17 10
6 0 5 -7 -3 -17z m-29 -93 c5 8 6 18 4 22 -3 4 -1 8 4 8 18 0 23 -33 7 -49
-12 -12 -17 -12 -27 -3 -14 14 -28 16 -28 4 0 -5 10 -14 23 -20 12 -6 16 -11
10 -11 -7 -1 -21 7 -31 17 -10 10 -24 16 -31 14 -10 -3 -11 -6 -1 -12 14 -9 5
-30 -13 -29 -9 0 -8 2 1 6 6 2 9 10 5 16 -11 19 -11 46 1 44 6 -1 10 6 9 16
-1 16 4 14 28 -9 25 -23 32 -26 39 -14z m65 -40 c-3 -5 -12 -10 -18 -10 -7 0
-6 4 3 10 19 12 23 12 15 0z m-30 -20 c3 -6 -1 -7 -9 -4 -18 7 -21 14 -7 14 6
0 13 -4 16 -10z m32 -18 c-10 -10 -14 -22 -10 -27 5 -4 2 -5 -5 -1 -9 6 -8 13
5 31 10 13 20 21 22 19 2 -2 -3 -12 -12 -22z m-172 -4 c-1 -13 5 -32 14 -43
14 -17 14 -18 0 -7 -9 6 -18 10 -21 7 -4 -4 -3 55 1 63 4 8 7 -1 6 -20z m70 2
c3 -6 -1 -7 -9 -4 -18 7 -21 14 -7 14 6 0 13 -4 16 -10z m61 -2 c4 -7 4 -10
-1 -6 -4 4 -17 3 -29 -3 -20 -10 -20 -10 -2 5 24 19 23 19 32 4z m71 -11 c0
-8 -6 -14 -14 -14 -9 0 -10 4 -2 14 6 7 12 13 14 13 1 0 2 -6 2 -13z m-73 -45
c2 -4 -4 -8 -14 -8 -10 0 -16 4 -14 8 3 4 9 8 14 8 5 0 11 -4 14 -8z m-112
-17 c2 3 5 -2 5 -10 0 -19 0 -19 -23 7 -12 14 -13 18 -3 10 9 -6 18 -10 21 -7z
m54 -7 c12 -14 13 -18 3 -10 -9 6 -18 10 -21 7 -2 -3 -5 2 -5 10 0 19 0 19 23
-7z m106 7 c2 3 5 -2 5 -10 0 -19 0 -19 -23 7 -12 14 -13 18 -3 10 9 -6 18
-10 21 -7z m67 -12 c2 -1 -5 -1 -16 0 -11 0 -20 7 -20 14 0 10 4 10 16 1 9 -7
18 -13 20 -15z m-269 -8 c0 -2 -6 -8 -13 -14 -10 -8 -14 -7 -14 2 0 8 6 14 14
14 7 0 13 -1 13 -2z m150 -9 c-7 -7 -13 -7 -20 0 -6 6 -3 10 10 10 13 0 16 -4
10 -10z m96 -22 c1 -9 0 -13 -4 -10 -3 4 -7 14 -8 22 -1 9 0 13 4 10 3 -4 7
-14 8 -22z m-196 6 c0 -5 -5 -10 -11 -10 -5 0 -7 5 -4 10 3 6 8 10 11 10 2 0
4 -4 4 -10z m18 -30 c-7 -10 -14 -17 -17 -15 -4 4 18 35 25 35 2 0 -1 -9 -8
-20z m102 6 c0 -2 -8 -10 -17 -17 -16 -13 -17 -12 -4 4 13 16 21 21 21 13z
m117 -11 c0 -8 -3 -13 -5 -10 -3 3 -12 -1 -21 -7 -10 -8 -9 -4 3 10 23 26 23
26 23 7z m-187 1 c0 -2 -8 -10 -17 -17 -16 -13 -17 -12 -4 4 13 16 21 21 21
13z m87 -14 c0 -10 -6 -19 -13 -19 -9 0 -9 5 -1 19 7 10 13 18 14 18 1 0 1 -8
0 -18z m-40 -27 c0 -8 -4 -12 -9 -9 -5 3 -6 10 -3 15 9 13 12 11 12 -6z m-157
1 c0 -2 -7 -7 -16 -10 -8 -3 -12 -2 -9 4 6 10 25 14 25 6z m325 -6 c-3 -5 -12
-10 -18 -10 -7 0 -6 4 3 10 19 12 23 12 15 0z m-399 -22 c3 -4 -1 -5 -10 -4
-8 1 -18 5 -22 8 -3 4 1 5 10 4 8 -1 18 -5 22 -8z m189 4 c-3 -3 0 -11 6 -19
17 -20 5 -16 -14 5 -15 16 -15 19 -2 19 8 0 13 -3 10 -5z m-138 -17 c0 -8 -3
-13 -5 -10 -3 3 -12 -1 -21 -7 -10 -8 -9 -4 3 10 23 26 23 26 23 7z m63 12 c0
-2 -8 -11 -18 -20 -15 -14 -19 -15 -19 -2 0 8 4 12 8 9 4 -2 10 0 14 6 6 10
15 14 15 7z m167 -15 c-10 -10 -14 -22 -10 -27 5 -4 2 -5 -5 -1 -11 6 -10 12
4 27 9 10 19 19 22 19 3 0 -2 -8 -11 -18z m70 -16 c18 -21 18 -21 -3 -3 -11 9
-23 14 -26 11 -3 -3 -8 -1 -12 4 -11 18 25 8 41 -12z m-352 -6 c-3 -5 -12 -10
-18 -10 -7 0 -6 4 3 10 19 12 23 12 15 0z m125 6 c0 -2 -8 -10 -17 -17 -16
-13 -17 -12 -4 4 13 16 21 21 21 13z m-74 -21 c-1 -8 -5 -17 -8 -21 -5 -4 -4
16 1 34 3 9 9 -1 7 -13z m159 6 c3 -5 2 -12 -3 -15 -5 -3 -9 1 -9 9 0 17 3 19
12 6z m-55 -26 c14 -19 14 -19 -2 -6 -10 7 -18 18 -18 24 0 6 1 8 3 6 1 -2 9
-13 17 -24z m271 2 c-10 -9 -11 -8 -5 6 3 10 9 15 12 12 3 -3 0 -11 -7 -18z
m-11926 3 c-3 -5 -1 -10 6 -10 7 0 10 -3 6 -6 -9 -9 -28 6 -22 17 4 5 8 9 11
9 3 0 2 -4 -1 -10z m11492 -5 c0 -8 -4 -12 -9 -9 -5 3 -6 10 -3 15 9 13 12 11
12 -6z m404 -2 c13 -16 12 -17 -3 -4 -17 13 -22 21 -14 21 2 0 10 -8 17 -17z
m-323 -13 c-7 -10 -14 -17 -17 -15 -4 4 18 35 25 35 2 0 -1 -9 -8 -20z m63 -7
c13 -16 12 -17 -3 -4 -17 13 -22 21 -14 21 2 0 10 -8 17 -17z m76 2 c0 -8 -3
-13 -5 -10 -3 3 -12 -1 -21 -7 -10 -8 -9 -4 3 10 23 26 23 26 23 7z m178 -23
c-3 -3 3 -15 12 -26 18 -21 18 -21 -5 -2 -12 11 -20 21 -17 24 3 3 -3 15 -12
26 -18 21 -18 21 5 2 12 -11 20 -21 17 -24z m-277 7 c9 -12 9 -16 -1 -16 -7 0
-14 9 -14 20 -1 11 -1 18 0 16 2 -2 8 -11 15 -20z m199 14 c-4 -3 -1 -13 6
-22 11 -14 10 -14 -5 -2 -21 15 -23 31 -6 31 6 0 8 -3 5 -7z m36 -11 c15 -16
15 -19 2 -19 -8 0 -13 3 -10 5 3 3 0 11 -6 19 -17 20 -5 16 14 -5z m4669 -4
c-7 -7 -12 -8 -12 -2 0 14 12 26 19 19 2 -3 -1 -11 -7 -17z m-4857 -8 c-3 -5
-12 -10 -18 -10 -7 0 -6 4 3 10 19 12 23 12 15 0z m272 -7 c0 -9 -4 -10 -14
-2 -7 6 -13 12 -13 14 0 1 6 2 13 2 8 0 14 -6 14 -14z m-379 -18 c-3 -3 -9 2
-12 12 -6 14 -5 15 5 6 7 -7 10 -15 7 -18z m159 10 c0 -8 -3 -13 -5 -10 -3 3
-15 -3 -26 -12 -15 -14 -18 -14 -8 -2 6 9 8 20 4 24 -4 5 -2 5 5 1 6 -3 14 -2
18 4 9 14 12 13 12 -5z m-123 -3 c3 -5 -1 -9 -9 -9 -8 0 -12 4 -9 9 3 4 7 8 9
8 2 0 6 -4 9 -8z m203 -7 c0 -8 -4 -12 -9 -9 -4 3 -8 9 -8 15 0 5 4 9 8 9 5 0
9 -7 9 -15z m154 -8 c-10 -9 -11 -8 -5 6 3 10 9 15 12 12 3 -3 0 -11 -7 -18z
m-215 -37 c1 -22 -2 -40 -6 -40 -5 0 -6 66 -1 78 4 9 6 -3 7 -38z m35 23 c13
-16 12 -17 -3 -4 -17 13 -22 21 -14 21 2 0 10 -8 17 -17z m99 12 c0 -1 -10
-10 -22 -21 -14 -12 -18 -13 -10 -3 6 9 10 18 7 21 -3 2 2 5 10 5 8 0 15 -1
15 -2z m40 -21 c0 -8 -19 -13 -24 -6 -3 5 1 9 9 9 8 0 15 -2 15 -3z m31 -7
c-6 -8 -9 -16 -6 -19 3 -2 -2 -5 -10 -5 -13 0 -13 3 2 19 19 21 31 25 14 5z
m35 -11 c1 -7 -4 -13 -12 -13 -9 0 -11 4 -4 12 5 7 8 15 5 18 -3 4 -2 5 2 2 4
-3 8 -11 9 -19z m-275 -3 c13 -16 12 -17 -3 -4 -17 13 -22 21 -14 21 2 0 10
-8 17 -17z m79 -7 c-7 -7 -13 -7 -20 0 -6 6 -3 10 10 10 13 0 16 -4 10 -10z
m-104 -22 c1 -9 0 -13 -4 -10 -3 4 -7 14 -8 22 -1 9 0 13 4 10 3 -4 7 -14 8
-22z m223 -1 c2 -1 -5 -1 -16 0 -11 0 -20 7 -20 14 0 10 4 10 16 1 9 -7 18
-13 20 -15z m-279 13 c0 -2 -7 -7 -16 -10 -8 -3 -12 -2 -9 4 6 10 25 14 25 6z
m190 0 c0 -2 -8 -10 -17 -17 -16 -13 -17 -12 -4 4 13 16 21 21 21 13z m10 -31
c-10 -12 -10 -18 1 -32 12 -17 12 -17 -6 -1 -15 14 -16 20 -5 32 7 9 15 16 17
16 3 0 0 -7 -7 -15z m61 -12 c13 -16 12 -17 -3 -4 -17 13 -22 21 -14 21 2 0
10 -8 17 -17z m-264 -11 c0 -10 -6 -19 -13 -19 -9 0 -9 5 -1 19 7 10 13 18 14
18 1 0 1 -8 0 -18z m43 9 c0 -5 -8 -15 -17 -22 -16 -12 -17 -12 -6 2 7 9 10
19 6 22 -3 4 -1 7 5 7 7 0 12 -4 12 -9z m198 -12 c9 -12 9 -16 -1 -16 -7 0
-14 9 -14 20 -1 11 -1 18 0 16 2 -2 8 -11 15 -20z m47 -9 c-3 -5 -12 -10 -18
-10 -7 0 -6 4 3 10 19 12 23 12 15 0z m81 -2 c3 -4 -1 -5 -10 -4 -8 1 -18 5
-22 8 -3 4 1 5 10 4 8 -1 18 -5 22 -8z m-190 -24 c1 -9 0 -13 -4 -10 -3 4 -7
14 -8 22 -1 9 0 13 4 10 3 -4 7 -14 8 -22z m-116 7 c0 -6 -4 -12 -8 -15 -5 -3
-9 1 -9 9 0 8 4 15 9 15 4 0 8 -4 8 -9z m259 6 c-2 -1 -13 -9 -24 -17 -19 -14
-19 -14 -6 3 7 9 18 17 24 17 6 0 8 -1 6 -3z m82 -24 c13 -16 12 -17 -3 -4
-17 13 -22 21 -14 21 2 0 10 -8 17 -17z m-417 1 c-7 -3 -10 -14 -7 -24 3 -11
9 -17 14 -14 5 3 9 0 9 -5 0 -6 -3 -11 -7 -11 -15 0 -28 15 -27 30 3 28 4 30
17 29 8 0 8 -2 1 -5z m106 2 c0 -2 -8 -10 -17 -17 -16 -13 -17 -12 -4 4 13 16
21 21 21 13z m61 -13 c13 -16 12 -17 -3 -4 -10 7 -18 15 -18 17 0 8 8 3 21
-13z m99 12 c0 -1 -10 -10 -22 -21 -14 -12 -18 -13 -10 -3 6 9 10 18 7 21 -3
2 2 5 10 5 8 0 15 -1 15 -2z m191 -22 c13 -16 12 -17 -3 -4 -17 13 -22 21 -14
21 2 0 10 -8 17 -17z m-104 -10 c0 -10 -4 -10 -16 -1 -9 7 -18 13 -20 15 -2 1
5 1 16 0 11 0 20 -7 20 -14z m63 3 c0 -2 -8 -10 -17 -17 -16 -13 -17 -12 -4 4
13 16 21 21 21 13z m-320 -20 c-7 -7 -13 -7 -20 0 -6 6 -3 10 10 10 13 0 16
-4 10 -10z m90 10 c0 -2 -8 -10 -17 -17 -16 -13 -17 -12 -4 4 13 16 21 21 21
13z m141 -13 c13 -16 12 -17 -3 -4 -17 13 -22 21 -14 21 2 0 10 -8 17 -17z
m105 -8 c-1 -8 -5 -17 -8 -21 -5 -4 -4 16 1 34 3 9 9 -1 7 -13z m-427 -51 c-7
-8 -6 -14 1 -19 5 -3 10 -1 10 6 0 7 3 9 6 6 4 -4 1 -14 -7 -24 -12 -15 -12
-16 3 -10 12 4 15 2 11 -9 -4 -12 -8 -12 -21 -2 -13 11 -15 10 -9 -5 4 -10 3
-16 -2 -13 -5 3 -11 -1 -15 -9 -6 -18 -1 -19 24 -5 17 9 18 8 13 -7 -6 -16 -5
-16 10 -4 9 7 14 17 11 22 -3 5 -1 16 4 25 8 15 10 15 15 0 4 -10 3 -15 -3
-11 -16 10 -12 -7 7 -27 11 -13 12 -18 3 -18 -10 0 -10 -3 0 -15 7 -8 17 -12
23 -8 6 4 7 1 2 -7 -6 -10 -4 -12 9 -7 10 4 15 3 11 -4 -4 -5 -16 -7 -28 -4
-21 6 -21 5 -3 -9 10 -8 24 -17 30 -19 7 -3 7 -9 -3 -20 -16 -20 -8 -22 22 -5
24 13 52 20 43 11 -3 -4 0 -13 6 -22 9 -11 6 -10 -9 2 -21 18 -22 18 -33 -2
-6 -12 -7 -21 -3 -21 4 0 2 -5 -5 -12 -21 -21 -13 -32 10 -12 12 10 18 13 14
7 -4 -8 -2 -13 5 -13 7 0 10 -3 7 -6 -4 -3 2 -14 13 -25 11 -11 16 -25 12 -36
-5 -15 -3 -16 8 -5 7 6 17 12 23 12 5 0 1 -7 -10 -16 -18 -14 -18 -15 6 -9 19
5 22 4 10 -4 -10 -7 -11 -11 -2 -11 6 0 11 -3 11 -7 -3 -19 2 -23 19 -14 14 7
19 6 19 -4 0 -7 -6 -11 -14 -8 -9 4 -11 0 -7 -11 3 -9 11 -13 17 -9 6 4 7 1 2
-7 -5 -8 -2 -18 9 -25 15 -12 15 -13 -3 -18 -14 -3 -18 -1 -14 10 5 12 2 13
-13 5 -14 -7 -24 -6 -38 4 -10 7 -22 11 -27 9 -12 -8 -80 36 -76 49 3 6 10 10
16 9 15 -4 14 6 -4 23 -15 15 -16 15 -19 -8 0 -6 -9 -12 -19 -14 -9 -1 -15 2
-11 7 4 8 -7 13 -26 11 -4 0 -6 10 -6 23 0 13 3 22 7 19 4 -2 13 3 20 12 11
13 9 14 -13 9 -18 -5 -27 -2 -32 10 -3 9 -10 13 -16 10 -5 -3 -10 -1 -10 4 0
6 5 11 12 11 19 0 -1 14 -25 17 -17 3 -19 1 -9 -9 6 -6 12 -16 12 -20 0 -4 -8
0 -18 10 -17 16 -17 17 2 28 19 11 18 12 -10 26 -16 9 -35 13 -41 11 -15 -6
-17 23 -3 32 12 7 4 25 -11 25 -6 0 -7 -6 -3 -12 5 -9 2 -8 -9 1 -16 13 -15
26 2 26 4 0 16 8 26 18 18 18 19 18 35 -2 8 -12 19 -19 23 -15 11 12 8 26 -5
18 -6 -4 -8 -3 -4 4 3 6 -3 13 -14 17 -17 5 -19 10 -9 21 9 11 9 14 -1 14 -8
0 -11 3 -8 6 4 3 15 1 25 -5 17 -9 20 -6 20 19 0 21 -4 27 -16 23 -13 -4 -14
-3 -2 5 12 9 12 13 2 26 -8 10 -9 16 -3 16 6 0 14 -9 17 -20 4 -11 11 -18 16
-15 5 4 2 18 -7 33 l-16 27 20 -25 c14 -17 17 -28 11 -36z m46 48 c-3 -3 1
-12 7 -21 7 -9 2 -7 -11 4 l-24 20 7 -20 c5 -15 4 -17 -5 -8 -14 14 -6 30 16
30 8 0 13 -3 10 -5z m116 -29 c13 -16 12 -17 -3 -4 -10 7 -18 15 -18 17 0 8 8
3 21 -13z m-55 -15 c4 -7 4 -10 -1 -6 -4 4 -15 2 -24 -5 -14 -11 -14 -10 -2 6
16 20 18 21 27 5z m241 -5 c0 -10 -4 -10 -16 -1 -9 7 -18 13 -20 15 -2 1 5 1
16 0 11 0 20 -7 20 -14z m107 5 c-3 -4 -9 -8 -15 -8 -5 0 -9 4 -9 8 0 5 7 9
15 9 8 0 12 -4 9 -9z m-399 -18 c-3 -5 -12 -10 -18 -10 -7 0 -6 4 3 10 19 12
23 12 15 0z m116 -3 c-6 -8 -9 -17 -6 -20 3 -4 2 -5 -2 -2 -3 3 -11 0 -18 -5
-8 -7 -12 -5 -12 5 0 8 4 12 8 10 3 -3 12 2 19 10 7 8 15 15 17 15 3 0 0 -6
-6 -13z m150 -4 c13 -16 12 -17 -3 -4 -10 7 -18 15 -18 17 0 8 8 3 21 -13z
m-215 -13 c0 -12 -4 -16 -9 -11 -5 5 -6 14 -3 20 10 15 12 14 12 -9z m196 -10
c11 -12 11 -12 -3 -2 -8 6 -25 10 -37 7 -12 -2 -24 0 -26 4 -9 14 53 6 66 -9z
m39 -3 c-10 -9 -11 -8 -5 6 3 10 9 15 12 12 3 -3 0 -11 -7 -18z m-131 -1 c0
-2 -7 -7 -16 -10 -8 -3 -12 -2 -9 4 6 10 25 14 25 6z m39 -30 c-3 -3 -11 5
-18 17 -13 21 -12 21 5 5 10 -10 16 -20 13 -22z m-147 9 c2 3 5 -2 5 -10 0
-10 -4 -12 -12 -5 -7 5 -14 8 -17 5 -2 -3 -5 2 -5 10 0 10 4 12 12 5 7 -5 14
-8 17 -5z m68 11 c0 -2 -6 -9 -14 -15 -11 -9 -16 -9 -22 0 -4 7 -3 9 4 5 6 -3
13 -2 17 4 6 10 15 14 15 6z m220 1 c0 -2 -12 -14 -27 -28 -15 -13 -22 -17
-15 -8 6 9 8 20 4 24 -4 5 -2 5 5 1 6 -3 14 -2 18 4 6 10 15 14 15 7z m-169
-24 c13 -16 12 -17 -3 -4 -17 13 -22 21 -14 21 2 0 10 -8 17 -17z m110 4 c-6
-8 -9 -16 -6 -19 3 -2 -2 -5 -10 -5 -13 0 -13 3 2 19 19 21 31 25 14 5z m90
-4 c13 -16 12 -17 -3 -4 -10 7 -18 15 -18 17 0 8 8 3 21 -13z m-220 -20 c13
-16 12 -17 -3 -4 -10 7 -18 15 -18 17 0 8 8 3 21 -13z m89 13 c0 -2 -7 -7 -16
-10 -8 -3 -12 -2 -9 4 6 10 25 14 25 6z m-109 -33 c13 -16 12 -17 -3 -4 -10 7
-18 15 -18 17 0 8 8 3 21 -13z m313 9 c3 -5 -1 -9 -9 -9 -8 0 -15 4 -15 9 0 4
4 8 9 8 6 0 12 -4 15 -8z m-247 -17 c0 -8 -10 -23 -21 -32 -21 -18 -21 -18 -2
5 11 12 16 22 12 22 -4 0 -4 5 -1 10 9 14 12 13 12 -5z m-86 -12 c13 -16 12
-17 -3 -4 -10 7 -18 15 -18 17 0 8 8 3 21 -13z m134 8 c-9 -8 -36 -10 -30 -2
2 4 11 8 20 8 8 0 13 -3 10 -6z m29 0 c3 -5 -2 -15 -12 -22 -15 -12 -16 -12
-5 2 7 9 10 19 6 22 -3 4 -4 7 0 7 3 0 8 -4 11 -9z m41 1 c-3 -3 3 -15 12 -26
14 -15 14 -18 2 -8 -9 6 -20 8 -25 4 -5 -4 -6 -3 -2 2 4 5 3 14 -2 21 -7 8 -5
12 5 12 8 0 13 -3 10 -5z m42 -15 c1 -11 1 -18 0 -16 -2 2 -8 11 -15 20 -9 12
-9 16 1 16 7 0 14 -9 14 -20z m100 0 c0 -7 -9 -14 -20 -14 -19 -2 -19 -2 -1
12 11 8 19 15 20 15 0 0 1 -6 1 -13z m-380 -19 c2 -17 0 -19 -7 -8 -5 8 -6 18
-4 22 8 12 10 10 11 -14z m170 -26 c-10 -10 -15 -21 -12 -24 3 -3 -5 -13 -17
-24 -23 -19 -23 -19 -7 1 9 11 15 28 14 38 -2 9 1 15 5 12 5 -3 11 -1 15 5 3
5 9 10 12 10 3 0 -1 -8 -10 -18z m51 -7 c-3 -3 -9 2 -12 12 -6 14 -5 15 5 6 7
-7 10 -15 7 -18z m137 -13 c-3 -3 3 -15 12 -26 18 -21 18 -21 -5 -2 -12 11
-20 21 -17 24 3 3 -3 15 -12 26 -18 21 -18 21 5 2 12 -11 20 -21 17 -24z
m-155 14 c0 -2 -8 -10 -17 -17 -16 -13 -17 -12 -4 4 13 16 21 21 21 13z m-115
-16 c-3 -5 -12 -10 -18 -10 -7 0 -6 4 3 10 19 12 23 12 15 0z m45 5 c0 -1 -10
-10 -22 -21 -14 -12 -18 -13 -10 -3 6 9 10 18 7 21 -3 2 2 5 10 5 8 0 15 -1
15 -2z m270 -7 c0 -4 -4 -8 -9 -8 -6 0 -12 4 -15 8 -3 5 1 9 9 9 8 0 15 -4 15
-9z m34 3 c3 -4 -4 -17 -17 -27 -22 -19 -22 -19 -4 2 9 11 14 24 10 27 -3 4
-4 7 0 7 3 0 8 -4 11 -9z m-217 -16 c0 -8 -3 -13 -5 -10 -3 3 -12 -1 -21 -7
-10 -8 -9 -4 3 10 23 26 23 26 23 7z m-12823 -4 c4 -5 -3 -7 -14 -4 -23 6 -26
13 -6 13 8 0 17 -4 20 -9z m12641 -1 c3 -6 -1 -7 -9 -4 -18 7 -21 14 -7 14 6
0 13 -4 16 -10z m271 3 c-2 -3 -6 -3 -9 -1 -3 2 -15 -6 -28 -17 l-24 -20 18
21 c9 11 24 21 32 21 8 0 13 -2 11 -4z m-230 -48 c-1 -8 -6 -18 -11 -22 -4 -4
-5 -2 -1 5 4 7 2 12 -6 12 -9 0 -9 3 2 10 14 9 7 14 -13 11 -5 -1 -6 3 -2 9 9
15 34 -6 31 -25z m94 31 c0 -2 -8 -10 -17 -17 -16 -13 -17 -12 -4 4 13 16 21
21 21 13z m-73 -28 c-3 -8 -6 -5 -6 6 -1 11 2 17 5 13 3 -3 4 -12 1 -19z m203
18 c0 -2 -8 -10 -17 -17 -16 -13 -17 -12 -4 4 13 16 21 21 21 13z m-100 -31
c14 -19 14 -19 -2 -6 -10 7 -18 18 -18 24 0 6 1 8 3 6 1 -2 9 -13 17 -24z
m-70 1 c0 -2 -8 -10 -17 -17 -16 -13 -17 -12 -4 4 13 16 21 21 21 13z m195 -5
c-9 -8 -36 -10 -30 -2 2 4 11 8 20 8 8 0 13 -3 10 -6z m45 4 c0 -1 -10 -10
-22 -21 -14 -12 -18 -13 -10 -3 6 9 10 18 7 21 -3 2 2 5 10 5 8 0 15 -1 15 -2z
m30 -10 c-5 -7 -9 -14 -7 -16 1 -2 0 -3 -2 -2 -2 2 -11 -3 -20 -9 -12 -10 -12
-7 2 8 9 11 15 23 12 26 -3 2 2 5 10 5 10 0 12 -4 5 -12z m-221 -9 c9 -10 8
-15 -2 -19 -8 -3 -13 3 -13 14 0 23 0 23 15 5z m-296 -10 c4 -10 1 -13 -8 -9
-8 3 -12 9 -9 14 7 12 11 11 17 -5z m327 -10 c0 -2 -8 -10 -17 -17 -16 -13
-17 -12 -4 4 13 16 21 21 21 13z m35 -6 c3 -6 -1 -7 -9 -4 -18 7 -21 14 -7 14
6 0 13 -4 16 -10z m79 -21 c-10 -12 -18 -24 -17 -28 1 -3 0 -7 -1 -8 -1 -1 -2
8 -2 22 0 13 3 22 7 19 4 -2 10 0 14 6 3 5 9 10 12 10 3 0 -2 -9 -13 -21z m96
17 c0 -2 -6 -9 -14 -15 -11 -9 -16 -9 -22 0 -4 7 -3 9 4 5 6 -3 13 -2 17 4 6
10 15 14 15 6z m-46 -22 c3 -8 2 -12 -4 -9 -6 3 -10 10 -10 16 0 14 7 11 14
-7z m-175 -38 c-3 -3 -11 5 -18 17 -13 21 -12 21 5 5 10 -10 16 -20 13 -22z
m45 22 c-3 -5 -2 -15 3 -21 4 -7 1 -5 -8 5 -9 9 -20 14 -24 10 -5 -4 -5 -2 -2
4 3 6 13 11 21 11 8 0 13 -4 10 -9z m46 7 c0 -2 -6 -8 -13 -14 -10 -8 -14 -7
-14 2 0 8 6 14 14 14 7 0 13 -1 13 -2z m65 -15 c4 -6 10 -8 14 -6 4 3 8 -1 8
-9 0 -12 -4 -12 -21 2 -12 10 -23 19 -25 20 -2 2 1 3 7 3 6 0 14 -5 17 -10z
m121 -12 c3 -4 -2 -5 -13 -3 -10 1 -27 -5 -38 -14 -20 -16 -20 -16 -2 6 17 20
39 24 53 11z m-156 -14 c0 -8 -19 -13 -24 -6 -3 5 1 9 9 9 8 0 15 -2 15 -3z
m31 -11 c13 -16 12 -17 -3 -4 -10 7 -18 15 -18 17 0 8 8 3 21 -13z m-113 -18
c-3 -3 -9 2 -12 12 -6 14 -5 15 5 6 7 -7 10 -15 7 -18z m218 5 c0 -12 -4 -16
-9 -11 -5 5 -6 14 -3 20 10 15 12 14 12 -9z m-242 -6 c3 -8 2 -12 -4 -9 -6 3
-10 10 -10 16 0 14 7 11 14 -7z m182 -6 c14 -17 15 -20 2 -9 -9 7 -22 10 -27
6 -7 -3 -8 0 -5 9 8 20 7 20 30 -6z m-321 -26 c-3 -3 -11 0 -18 7 -9 10 -8 11
6 5 10 -3 15 -9 12 -12z m122 12 c-3 -3 -12 -4 -19 -1 -8 3 -5 6 6 6 11 1 17
-2 13 -5z m67 -12 c3 -5 -1 -9 -9 -9 -8 0 -12 4 -9 9 3 4 7 8 9 8 2 0 6 -4 9
-8z m40 0 c3 -5 -1 -9 -9 -9 -8 0 -15 4 -15 9 0 4 4 8 9 8 6 0 12 -4 15 -8z
m90 -1 c3 -5 -2 -15 -12 -22 -15 -12 -16 -12 -5 2 7 9 10 19 6 22 -3 4 -4 7 0
7 3 0 8 -4 11 -9z m-239 -21 c-28 -12 -37 -12 -30 0 3 6 16 10 28 9 21 0 21
-1 2 -9z m319 1 c3 -5 -2 -15 -12 -22 -15 -12 -16 -12 -5 2 7 9 10 19 6 22 -3
4 -4 7 0 7 3 0 8 -4 11 -9z m-221 -21 c3 -11 1 -18 -4 -14 -5 3 -9 12 -9 20 0
20 7 17 13 -6z m24 5 c0 -8 -4 -12 -9 -9 -5 3 -6 10 -3 15 9 13 12 11 12 -6z
m63 -3 c0 -5 -7 -9 -15 -9 -8 0 -12 4 -9 9 3 4 9 8 15 8 5 0 9 -4 9 -8z m49
-26 c9 -11 9 -16 -1 -22 -7 -4 -10 -4 -6 1 4 4 3 14 -3 22 -6 7 -9 13 -6 13 2
0 10 -6 16 -14z m-56 -11 c-3 -9 -8 -14 -10 -11 -3 3 -2 9 2 15 9 16 15 13 8
-4z m114 -2 c-14 -14 -19 -15 -29 -4 -11 10 -10 11 3 6 10 -4 20 -2 24 4 3 6
9 11 13 11 3 0 -1 -8 -11 -17z m58 -1 c-3 -3 -11 0 -18 7 -9 10 -8 11 6 5 10
-3 15 -9 12 -12z m-12305 -42 c0 -5 -2 -10 -4 -10 -3 0 -8 5 -11 10 -3 6 -1
10 4 10 6 0 11 -4 11 -10z m9 -58 c7 -13 6 -19 -2 -19 -7 0 -13 9 -13 19 0 10
1 18 3 18 1 0 7 -8 12 -18z m104 -385 c3 -8 -1 -14 -8 -14 -7 0 -11 6 -8 14 3
7 6 13 8 13 2 0 5 -6 8 -13z m17452 -77 c-3 -5 -12 -10 -18 -10 -7 0 -6 4 3
10 19 12 23 12 15 0z m-1758 -355 c0 -8 -4 -12 -9 -9 -5 3 -6 10 -3 15 9 13
12 11 12 -6z m-47 -385 c0 -5 -5 -10 -11 -10 -5 0 -7 5 -4 10 3 6 8 10 11 10
2 0 4 -4 4 -10z m130 -980 c0 -5 -2 -10 -4 -10 -3 0 -8 5 -11 10 -3 6 -1 10 4
10 6 0 11 -4 11 -10z m-1367 -240 c-6 -21 -25 -28 -20 -7 2 10 16 26 24 27 0
0 -1 -9 -4 -20z m267 -350 c8 -5 11 -10 5 -10 -5 0 -17 5 -25 10 -8 5 -10 10
-5 10 6 0 17 -5 25 -10z m640 -370 c0 -5 -5 -10 -11 -10 -5 0 -7 5 -4 10 3 6
8 10 11 10 2 0 4 -4 4 -10z m-1379 -757 c13 -16 12 -17 -3 -4 -17 13 -22 21
-14 21 2 0 10 -8 17 -17z m150 -990 c13 -16 12 -17 -3 -4 -17 13 -22 21 -14
21 2 0 10 -8 17 -17z m4 -33 c3 -6 -1 -7 -9 -4 -18 7 -21 14 -7 14 6 0 13 -4
16 -10z m-14040 -500 c3 -5 1 -10 -4 -10 -6 0 -11 5 -11 10 0 6 2 10 4 10 3 0
8 -4 11 -10z m190 -1930 c3 -5 1 -10 -4 -10 -6 0 -11 5 -11 10 0 6 2 10 4 10
3 0 8 -4 11 -10z m-135 -144 c0 -3 -4 -8 -10 -11 -5 -3 -10 -1 -10 4 0 6 5 11
10 11 6 0 10 -2 10 -4z m-1000 -1112 c0 -2 -7 -4 -15 -4 -8 0 -15 4 -15 10 0
5 7 7 15 4 8 -4 15 -8 15 -10z m-200 -279 c0 -2 -6 -7 -12 -11 -7 -4 -10 -4
-6 1 4 4 0 14 -10 22 -15 13 -15 13 6 3 12 -6 22 -13 22 -15z m-166 -171 c5
-13 4 -14 -7 -6 -8 7 -18 8 -22 4 -5 -4 -5 -1 -1 6 10 17 23 15 30 -4z"/>
<path d="M13686 10922 c-3 -5 1 -9 9 -9 8 0 12 4 9 9 -3 4 -7 8 -9 8 -2 0 -6
-4 -9 -8z"/>
<path d="M13620 10159 c0 -5 5 -7 10 -4 6 3 10 8 10 11 0 2 -4 4 -10 4 -5 0
-10 -5 -10 -11z"/>
<path d="M13590 10120 c0 -5 5 -10 10 -10 6 0 10 5 10 10 0 6 -4 10 -10 10 -5
0 -10 -4 -10 -10z"/>
<path d="M13671 10096 c-10 -11 -8 -17 6 -25 11 -6 13 -11 5 -11 -7 0 -10 -4
-7 -10 4 -6 -1 -7 -12 -3 -16 6 -17 5 -4 -11 14 -17 15 -17 28 0 15 21 16 31
3 39 -5 3 -7 12 -3 20 7 19 -1 19 -16 1z"/>
<path d="M13630 10083 c0 -12 -6 -23 -13 -26 -15 -5 -49 16 -42 27 3 3 -3 0
-12 -8 -14 -13 -14 -18 -3 -31 18 -21 26 -10 9 12 -12 16 -11 16 8 0 12 -11
26 -16 32 -12 6 3 9 0 6 -8 -3 -7 -17 -13 -32 -13 -14 1 -28 -4 -30 -11 -3 -8
6 -10 29 -7 25 4 29 2 18 -5 -13 -9 -13 -11 3 -11 16 0 22 -12 18 -34 -1 -5 5
-4 13 4 18 15 21 31 5 28 -21 -5 -17 34 6 58 22 22 22 23 4 40 -18 16 -19 16
-19 -3z"/>
<path d="M13640 10035 c-1 -5 -3 -18 -5 -28 -2 -9 1 -15 5 -12 14 9 23 -15 11
-29 -6 -7 -8 -16 -4 -19 12 -12 21 -7 19 11 0 9 5 16 12 15 14 -3 17 14 2 19
-6 2 -1 9 11 16 12 8 18 9 15 3 -9 -14 14 -25 26 -13 16 16 -29 37 -48 21 -12
-10 -17 -8 -29 7 -8 10 -15 15 -15 9z"/>
<path d="M13694 9982 c0 -9 -5 -16 -11 -14 -7 1 -13 -2 -13 -7 0 -5 10 -9 23
-9 12 -1 30 -3 41 -4 11 -2 20 4 21 15 2 9 -1 14 -6 11 -6 -3 -20 1 -33 10
-22 14 -23 13 -22 -2z"/>
<path d="M13672 9936 c-21 -11 -22 -14 -7 -26 13 -11 18 -11 28 0 9 9 9 11 0
6 -6 -3 -14 -2 -18 3 -3 6 3 8 14 6 14 -2 18 1 14 11 -3 8 -6 14 -7 14 0 -1
-11 -6 -24 -14z"/>
<path d="M13713 9920 c-1 -11 2 -20 8 -20 5 0 9 5 9 11 0 5 6 7 13 3 8 -5 8
-2 -2 9 -18 22 -26 21 -28 -3z"/>
<path d="M13762 9917 c-7 -7 -9 -17 -5 -21 4 -4 0 -4 -9 -1 -9 4 -27 -4 -43
-17 l-27 -24 27 -18 c15 -10 25 -13 21 -8 -3 6 -2 14 4 17 6 4 8 16 5 28 -4
12 -3 18 2 12 4 -5 16 -11 26 -11 13 -2 16 3 12 20 -5 17 -4 18 4 6 6 -8 8
-23 5 -33 -5 -16 -3 -17 15 -8 12 7 18 17 14 27 -3 8 -8 12 -11 9 -3 -3 -11 4
-17 15 -10 18 -13 19 -23 7z m-49 -54 c-5 -12 -3 -14 7 -8 9 6 11 4 5 -4 -5
-9 -11 -9 -17 -3 -6 6 -7 15 -4 21 11 17 16 13 9 -6z"/>
<path d="M13750 9863 c0 -3 7 -14 16 -24 16 -18 11 -44 -7 -34 -5 4 -9 2 -9
-3 0 -9 52 -35 79 -39 7 -1 18 -6 24 -12 11 -11 37 -4 37 11 0 5 -5 6 -12 2
-7 -5 -9 -2 -5 8 3 10 -6 28 -25 47 -30 31 -58 41 -58 21 0 -6 -6 -5 -14 2 -8
7 -12 16 -9 21 2 4 -1 7 -6 7 -6 0 -11 -3 -11 -7z m63 -56 c-5 -21 -5 -21 9
-3 15 19 16 19 27 -2 6 -12 9 -22 5 -22 -3 0 0 -7 7 -17 13 -15 12 -15 -8 -2
-13 8 -23 17 -23 21 0 4 -9 5 -20 3 -26 -5 -37 15 -17 30 9 7 13 16 9 20 -4 5
-2 5 5 2 6 -4 9 -17 6 -30z"/>
<path d="M13830 9801 c0 -6 4 -13 10 -16 6 -3 7 1 4 9 -7 18 -14 21 -14 7z"/>
<path d="M12411 20084 c0 -11 3 -14 6 -6 3 7 2 16 -1 19 -3 4 -6 -2 -5 -13z"/>
<path d="M12315 20080 c3 -5 12 -7 20 -3 21 7 19 13 -6 13 -11 0 -18 -4 -14
-10z"/>
<path d="M8777 18573 c-10 -10 -8 -23 4 -23 5 0 8 4 5 9 -4 5 0 12 6 14 7 3 8
6 2 6 -6 1 -14 -2 -17 -6z"/>
<path d="M7841 18511 c-10 -6 -9 -10 3 -14 8 -3 18 -2 21 3 8 13 -9 20 -24 11z"/>
<path d="M8656 18402 c-2 -4 4 -9 15 -9 11 -1 17 2 14 8 -7 11 -22 12 -29 1z"/>
<path d="M8660 18350 c-9 -6 -10 -10 -3 -10 6 0 15 5 18 10 8 12 4 12 -15 0z"/>
<path d="M15825 17670 c-16 -7 -17 -9 -3 -9 9 -1 20 4 23 9 7 11 7 11 -20 0z"/>
<path d="M16136 17465 c4 -8 8 -15 10 -15 2 0 4 7 4 15 0 8 -4 15 -10 15 -5 0
-7 -7 -4 -15z"/>
<path d="M16266 17358 c3 -5 10 -6 15 -3 13 9 11 12 -6 12 -8 0 -12 -4 -9 -9z"/>
<path d="M4455 16879 c-4 -6 -3 -15 3 -21 6 -6 11 -4 15 6 7 18 -9 31 -18 15z"/>
<path d="M4310 16559 c0 -5 5 -7 10 -4 6 3 10 8 10 11 0 2 -4 4 -10 4 -5 0
-10 -5 -10 -11z"/>
<path d="M19055 15520 c3 -5 8 -10 11 -10 2 0 4 5 4 10 0 6 -5 10 -11 10 -5 0
-7 -4 -4 -10z"/>
<path d="M3959 15492 c9 -7 10 -11 2 -15 -7 -4 -8 -5 -1 -3 16 2 14 20 -2 24
-10 3 -10 2 1 -6z"/>
<path d="M3435 14921 c-3 -5 -2 -12 3 -15 5 -3 9 1 9 9 0 17 -3 19 -12 6z"/>
<path d="M2875 13899 c-4 -6 -5 -12 -2 -15 2 -3 7 2 10 11 7 17 1 20 -8 4z"/>
<path d="M18940 13360 c-9 -6 -10 -10 -3 -10 6 0 15 5 18 10 8 12 4 12 -15 0z"/>
<path d="M19049 12977 c6 -8 7 -18 3 -22 -4 -5 -1 -5 6 -1 10 6 10 11 1 22 -6
8 -14 14 -16 14 -3 0 0 -6 6 -13z"/>
<path d="M1525 12441 c-3 -5 -2 -12 3 -15 5 -3 9 1 9 9 0 17 -3 19 -12 6z"/>
<path d="M1082 11526 c7 -8 15 -12 17 -11 5 6 -10 25 -20 25 -5 0 -4 -6 3 -14z"/>
<path d="M1984 10734 c-18 -14 -18 -15 4 -4 12 6 22 13 22 15 0 8 -5 6 -26
-11z"/>
<path d="M1045 10280 c3 -5 8 -10 11 -10 2 0 4 5 4 10 0 6 -5 10 -11 10 -5 0
-7 -4 -4 -10z"/>
<path d="M17731 8406 c-9 -10 -8 -15 2 -19 8 -3 13 3 14 14 2 23 -1 24 -16 5z"/>
<path d="M2685 8040 c3 -5 8 -10 11 -10 2 0 4 5 4 10 0 6 -5 10 -11 10 -5 0
-7 -4 -4 -10z"/>
<path d="M2670 6790 c-12 -7 -10 -9 7 -7 12 0 19 5 17 9 -6 10 -6 10 -24 -2z"/>
<path d="M16070 5864 c0 -8 5 -12 10 -9 6 4 8 11 5 16 -9 14 -15 11 -15 -7z"/>
<path d="M2035 5421 c-3 -5 0 -13 6 -17 7 -4 9 -3 5 4 -3 5 0 13 6 15 9 4 10
6 1 6 -6 1 -14 -3 -18 -8z"/>
<path d="M16180 4519 c0 -5 5 -7 10 -4 6 3 10 8 10 11 0 2 -4 4 -10 4 -5 0
-10 -5 -10 -11z"/>
<path d="M2225 4170 c-3 -5 -1 -10 4 -10 6 0 11 5 11 10 0 6 -2 10 -4 10 -3 0
-8 -4 -11 -10z"/>
<path d="M2225 3980 c3 -5 8 -10 11 -10 2 0 4 5 4 10 0 6 -5 10 -11 10 -5 0
-7 -4 -4 -10z"/>
<path d="M2217 3959 c7 -7 15 -10 18 -7 3 3 -2 9 -12 12 -14 6 -15 5 -6 -5z"/>
<path d="M2235 3879 c-4 -6 -5 -12 -2 -15 2 -3 7 2 10 11 7 17 1 20 -8 4z"/>
<path d="M1980 1881 c0 -6 4 -13 10 -16 6 -3 7 1 4 9 -7 18 -14 21 -14 7z"/>
<path d="M16161 1883 c-1 -17 16 -25 25 -12 4 7 3 9 -4 5 -5 -3 -13 0 -15 6
-4 9 -6 10 -6 1z"/>
</g>
</svg>
